solid SHAPR3D_SOLID
facet normal 1.000000e+00 0.000000e+00 0.000000e+00
outer loop
vertex 2.000000e+01 2.000000e-01 1.170000e+01
vertex 2.000000e+01 2.000000e-01 1.300000e+00
vertex 2.000000e+01 1.300000e+00 1.300000e+00
endloop
endfacet
facet normal 1.000000e+00 0.000000e+00 -0.000000e+00
outer loop
vertex 2.000000e+01 1.300000e+00 1.300000e+00
vertex 2.000000e+01 1.300000e+00 1.170000e+01
vertex 2.000000e+01 2.000000e-01 1.170000e+01
endloop
endfacet
facet normal 9.807853e-01 -0.000000e+00 1.950903e-01
outer loop
vertex 2.000000e+01 2.000000e-01 1.170000e+01
vertex 2.000000e+01 1.300000e+00 1.170000e+01
vertex 1.990104e+01 1.300000e+00 1.219749e+01
endloop
endfacet
facet normal 8.314696e-01 -0.000000e+00 5.555702e-01
outer loop
vertex 1.990104e+01 2.000000e-01 1.219749e+01
vertex 1.990104e+01 1.300000e+00 1.219749e+01
vertex 1.961924e+01 1.300000e+00 1.261924e+01
endloop
endfacet
facet normal 5.555702e-01 -0.000000e+00 8.314696e-01
outer loop
vertex 1.961924e+01 2.000000e-01 1.261924e+01
vertex 1.961924e+01 1.300000e+00 1.261924e+01
vertex 1.919749e+01 1.300000e+00 1.290104e+01
endloop
endfacet
facet normal 1.950903e-01 -0.000000e+00 9.807853e-01
outer loop
vertex 1.919749e+01 2.000000e-01 1.290104e+01
vertex 1.919749e+01 1.300000e+00 1.290104e+01
vertex 1.870000e+01 1.300000e+00 1.300000e+01
endloop
endfacet
facet normal 1.950903e-01 0.000000e+00 9.807853e-01
outer loop
vertex 1.870000e+01 1.300000e+00 1.300000e+01
vertex 1.870000e+01 2.000000e-01 1.300000e+01
vertex 1.919749e+01 2.000000e-01 1.290104e+01
endloop
endfacet
facet normal 5.555702e-01 0.000000e+00 8.314696e-01
outer loop
vertex 1.919749e+01 1.300000e+00 1.290104e+01
vertex 1.919749e+01 2.000000e-01 1.290104e+01
vertex 1.961924e+01 2.000000e-01 1.261924e+01
endloop
endfacet
facet normal 8.314696e-01 0.000000e+00 5.555702e-01
outer loop
vertex 1.961924e+01 1.300000e+00 1.261924e+01
vertex 1.961924e+01 2.000000e-01 1.261924e+01
vertex 1.990104e+01 2.000000e-01 1.219749e+01
endloop
endfacet
facet normal 9.807853e-01 0.000000e+00 1.950903e-01
outer loop
vertex 1.990104e+01 1.300000e+00 1.219749e+01
vertex 1.990104e+01 2.000000e-01 1.219749e+01
vertex 2.000000e+01 2.000000e-01 1.170000e+01
endloop
endfacet
facet normal 1.950903e-01 -9.807853e-01 0.000000e+00
outer loop
vertex 1.980000e+01 0.000000e+00 1.170000e+01
vertex 1.980000e+01 0.000000e+00 1.300000e+00
vertex 1.987654e+01 1.522409e-02 1.300000e+00
endloop
endfacet
facet normal 5.555702e-01 -8.314696e-01 -1.386894e-17
outer loop
vertex 1.987654e+01 1.522409e-02 1.170000e+01
vertex 1.987654e+01 1.522409e-02 1.300000e+00
vertex 1.994142e+01 5.857864e-02 1.300000e+00
endloop
endfacet
facet normal 8.314696e-01 -5.555702e-01 1.042530e-17
outer loop
vertex 1.994142e+01 5.857864e-02 1.170000e+01
vertex 1.994142e+01 5.857864e-02 1.300000e+00
vertex 1.998478e+01 1.234633e-01 1.300000e+00
endloop
endfacet
facet normal 9.807853e-01 -1.950903e-01 6.914990e-18
outer loop
vertex 1.998478e+01 1.234633e-01 1.170000e+01
vertex 1.998478e+01 1.234633e-01 1.300000e+00
vertex 2.000000e+01 2.000000e-01 1.300000e+00
endloop
endfacet
facet normal 9.807853e-01 -1.950903e-01 0.000000e+00
outer loop
vertex 2.000000e+01 2.000000e-01 1.300000e+00
vertex 2.000000e+01 2.000000e-01 1.170000e+01
vertex 1.998478e+01 1.234633e-01 1.170000e+01
endloop
endfacet
facet normal 8.314696e-01 -5.555702e-01 1.969223e-17
outer loop
vertex 1.998478e+01 1.234633e-01 1.300000e+00
vertex 1.998478e+01 1.234633e-01 1.170000e+01
vertex 1.994142e+01 5.857864e-02 1.170000e+01
endloop
endfacet
facet normal 5.555702e-01 -8.314696e-01 1.560256e-17
outer loop
vertex 1.994142e+01 5.857864e-02 1.300000e+00
vertex 1.994142e+01 5.857864e-02 1.170000e+01
vertex 1.987654e+01 1.522409e-02 1.170000e+01
endloop
endfacet
facet normal 1.950903e-01 -9.807853e-01 -1.635953e-17
outer loop
vertex 1.987654e+01 1.522409e-02 1.300000e+00
vertex 1.987654e+01 1.522409e-02 1.170000e+01
vertex 1.980000e+01 0.000000e+00 1.170000e+01
endloop
endfacet
facet normal 1.914805e-01 -1.914805e-01 -9.626372e-01
outer loop
vertex 1.870000e+01 1.234633e-01 1.522409e-02
vertex 1.870000e+01 2.000000e-01 0.000000e+00
vertex 1.919749e+01 2.000000e-01 9.895661e-02
endloop
endfacet
facet normal 5.452902e-01 -1.914805e-01 -8.160845e-01
outer loop
vertex 1.919166e+01 1.234633e-01 1.130218e-01
vertex 1.919749e+01 2.000000e-01 9.895661e-02
vertex 1.961924e+01 2.000000e-01 3.807612e-01
endloop
endfacet
facet normal 8.160845e-01 -1.914805e-01 -5.452902e-01
outer loop
vertex 1.960847e+01 1.234633e-01 3.915262e-01
vertex 1.961924e+01 2.000000e-01 3.807612e-01
vertex 1.990104e+01 2.000000e-01 8.025115e-01
endloop
endfacet
facet normal 9.626372e-01 -1.914805e-01 -1.914805e-01
outer loop
vertex 1.988698e+01 1.234633e-01 8.083375e-01
vertex 1.990104e+01 2.000000e-01 8.025115e-01
vertex 2.000000e+01 2.000000e-01 1.300000e+00
endloop
endfacet
facet normal 1.631730e-01 -5.481242e-01 -8.203258e-01
outer loop
vertex 1.870000e+01 5.857864e-02 5.857864e-02
vertex 1.870000e+01 1.234633e-01 1.522409e-02
vertex 1.919166e+01 1.234633e-01 1.130218e-01
endloop
endfacet
facet normal 4.646773e-01 -5.481242e-01 -6.954387e-01
outer loop
vertex 1.917507e+01 5.857864e-02 1.530762e-01
vertex 1.919166e+01 1.234633e-01 1.130218e-01
vertex 1.960847e+01 1.234633e-01 3.915262e-01
endloop
endfacet
facet normal 6.954387e-01 -5.481242e-01 -4.646773e-01
outer loop
vertex 1.957782e+01 5.857864e-02 4.221825e-01
vertex 1.960847e+01 1.234633e-01 3.915262e-01
vertex 1.988698e+01 1.234633e-01 8.083375e-01
endloop
endfacet
facet normal 8.203258e-01 -5.481242e-01 -1.631730e-01
outer loop
vertex 1.984692e+01 5.857864e-02 8.249286e-01
vertex 1.988698e+01 1.234633e-01 8.083375e-01
vertex 1.998478e+01 1.234633e-01 1.300000e+00
endloop
endfacet
facet normal 1.098411e-01 -8.264385e-01 -5.522086e-01
outer loop
vertex 1.870000e+01 1.522409e-02 1.234633e-01
vertex 1.870000e+01 5.857864e-02 5.857864e-02
vertex 1.917507e+01 5.857864e-02 1.530762e-01
endloop
endfacet
facet normal 3.128010e-01 -8.264385e-01 -4.681398e-01
outer loop
vertex 1.915024e+01 1.522409e-02 2.130218e-01
vertex 1.917507e+01 5.857864e-02 1.530762e-01
vertex 1.957782e+01 5.857864e-02 4.221825e-01
endloop
endfacet
facet normal 4.681398e-01 -8.264385e-01 -3.128010e-01
outer loop
vertex 1.953194e+01 1.522409e-02 4.680629e-01
vertex 1.957782e+01 5.857864e-02 4.221825e-01
vertex 1.984692e+01 5.857864e-02 8.249286e-01
endloop
endfacet
facet normal 5.522086e-01 -8.264385e-01 -1.098411e-01
outer loop
vertex 1.978698e+01 1.522409e-02 8.497589e-01
vertex 1.984692e+01 5.857864e-02 8.249286e-01
vertex 1.994142e+01 5.857864e-02 1.300000e+00
endloop
endfacet
facet normal 3.877669e-02 -9.800476e-01 -1.949436e-01
outer loop
vertex 1.870000e+01 0.000000e+00 2.000000e-01
vertex 1.870000e+01 1.522409e-02 1.234633e-01
vertex 1.915024e+01 1.522409e-02 2.130218e-01
endloop
endfacet
facet normal 1.104267e-01 -9.800476e-01 -1.652652e-01
outer loop
vertex 1.912095e+01 0.000000e+00 2.837325e-01
vertex 1.915024e+01 1.522409e-02 2.130218e-01
vertex 1.953194e+01 1.522409e-02 4.680629e-01
endloop
endfacet
facet normal 1.652652e-01 -9.800476e-01 -1.104267e-01
outer loop
vertex 1.947782e+01 0.000000e+00 5.221825e-01
vertex 1.953194e+01 1.522409e-02 4.680629e-01
vertex 1.978698e+01 1.522409e-02 8.497589e-01
endloop
endfacet
facet normal 1.949436e-01 -9.800476e-01 -3.877669e-02
outer loop
vertex 1.971627e+01 0.000000e+00 8.790482e-01
vertex 1.978698e+01 1.522409e-02 8.497589e-01
vertex 1.987654e+01 1.522409e-02 1.300000e+00
endloop
endfacet
facet normal 1.949436e-01 -9.800476e-01 -3.877669e-02
outer loop
vertex 1.987654e+01 1.522409e-02 1.300000e+00
vertex 1.980000e+01 0.000000e+00 1.300000e+00
vertex 1.971627e+01 0.000000e+00 8.790482e-01
endloop
endfacet
facet normal 1.652652e-01 -9.800476e-01 -1.104267e-01
outer loop
vertex 1.978698e+01 1.522409e-02 8.497589e-01
vertex 1.971627e+01 0.000000e+00 8.790482e-01
vertex 1.947782e+01 0.000000e+00 5.221825e-01
endloop
endfacet
facet normal 1.104267e-01 -9.800476e-01 -1.652652e-01
outer loop
vertex 1.953194e+01 1.522409e-02 4.680629e-01
vertex 1.947782e+01 0.000000e+00 5.221825e-01
vertex 1.912095e+01 0.000000e+00 2.837325e-01
endloop
endfacet
facet normal 3.877669e-02 -9.800476e-01 -1.949436e-01
outer loop
vertex 1.915024e+01 1.522409e-02 2.130218e-01
vertex 1.912095e+01 0.000000e+00 2.837325e-01
vertex 1.870000e+01 0.000000e+00 2.000000e-01
endloop
endfacet
facet normal 5.522086e-01 -8.264385e-01 -1.098411e-01
outer loop
vertex 1.994142e+01 5.857864e-02 1.300000e+00
vertex 1.987654e+01 1.522409e-02 1.300000e+00
vertex 1.978698e+01 1.522409e-02 8.497589e-01
endloop
endfacet
facet normal 4.681398e-01 -8.264385e-01 -3.128010e-01
outer loop
vertex 1.984692e+01 5.857864e-02 8.249286e-01
vertex 1.978698e+01 1.522409e-02 8.497589e-01
vertex 1.953194e+01 1.522409e-02 4.680629e-01
endloop
endfacet
facet normal 3.128010e-01 -8.264385e-01 -4.681398e-01
outer loop
vertex 1.957782e+01 5.857864e-02 4.221825e-01
vertex 1.953194e+01 1.522409e-02 4.680629e-01
vertex 1.915024e+01 1.522409e-02 2.130218e-01
endloop
endfacet
facet normal 1.098411e-01 -8.264385e-01 -5.522086e-01
outer loop
vertex 1.917507e+01 5.857864e-02 1.530762e-01
vertex 1.915024e+01 1.522409e-02 2.130218e-01
vertex 1.870000e+01 1.522409e-02 1.234633e-01
endloop
endfacet
facet normal 8.203258e-01 -5.481242e-01 -1.631730e-01
outer loop
vertex 1.998478e+01 1.234633e-01 1.300000e+00
vertex 1.994142e+01 5.857864e-02 1.300000e+00
vertex 1.984692e+01 5.857864e-02 8.249286e-01
endloop
endfacet
facet normal 6.954387e-01 -5.481242e-01 -4.646773e-01
outer loop
vertex 1.988698e+01 1.234633e-01 8.083375e-01
vertex 1.984692e+01 5.857864e-02 8.249286e-01
vertex 1.957782e+01 5.857864e-02 4.221825e-01
endloop
endfacet
facet normal 4.646773e-01 -5.481242e-01 -6.954387e-01
outer loop
vertex 1.960847e+01 1.234633e-01 3.915262e-01
vertex 1.957782e+01 5.857864e-02 4.221825e-01
vertex 1.917507e+01 5.857864e-02 1.530762e-01
endloop
endfacet
facet normal 1.631730e-01 -5.481242e-01 -8.203258e-01
outer loop
vertex 1.919166e+01 1.234633e-01 1.130218e-01
vertex 1.917507e+01 5.857864e-02 1.530762e-01
vertex 1.870000e+01 5.857864e-02 5.857864e-02
endloop
endfacet
facet normal 9.626372e-01 -1.914805e-01 -1.914805e-01
outer loop
vertex 2.000000e+01 2.000000e-01 1.300000e+00
vertex 1.998478e+01 1.234633e-01 1.300000e+00
vertex 1.988698e+01 1.234633e-01 8.083375e-01
endloop
endfacet
facet normal 8.160845e-01 -1.914805e-01 -5.452902e-01
outer loop
vertex 1.990104e+01 2.000000e-01 8.025115e-01
vertex 1.988698e+01 1.234633e-01 8.083375e-01
vertex 1.960847e+01 1.234633e-01 3.915262e-01
endloop
endfacet
facet normal 5.452902e-01 -1.914805e-01 -8.160845e-01
outer loop
vertex 1.961924e+01 2.000000e-01 3.807612e-01
vertex 1.960847e+01 1.234633e-01 3.915262e-01
vertex 1.919166e+01 1.234633e-01 1.130218e-01
endloop
endfacet
facet normal 1.914805e-01 -1.914805e-01 -9.626372e-01
outer loop
vertex 1.919749e+01 2.000000e-01 9.895661e-02
vertex 1.919166e+01 1.234633e-01 1.130218e-01
vertex 1.870000e+01 1.234633e-01 1.522409e-02
endloop
endfacet
facet normal 9.626372e-01 -1.914805e-01 1.914805e-01
outer loop
vertex 1.998478e+01 1.234633e-01 1.170000e+01
vertex 2.000000e+01 2.000000e-01 1.170000e+01
vertex 1.990104e+01 2.000000e-01 1.219749e+01
endloop
endfacet
facet normal 8.160845e-01 -1.914805e-01 5.452902e-01
outer loop
vertex 1.988698e+01 1.234633e-01 1.219166e+01
vertex 1.990104e+01 2.000000e-01 1.219749e+01
vertex 1.961924e+01 2.000000e-01 1.261924e+01
endloop
endfacet
facet normal 5.452902e-01 -1.914805e-01 8.160845e-01
outer loop
vertex 1.960847e+01 1.234633e-01 1.260847e+01
vertex 1.961924e+01 2.000000e-01 1.261924e+01
vertex 1.919749e+01 2.000000e-01 1.290104e+01
endloop
endfacet
facet normal 1.914805e-01 -1.914805e-01 9.626372e-01
outer loop
vertex 1.919166e+01 1.234633e-01 1.288698e+01
vertex 1.919749e+01 2.000000e-01 1.290104e+01
vertex 1.870000e+01 2.000000e-01 1.300000e+01
endloop
endfacet
facet normal 8.203258e-01 -5.481242e-01 1.631730e-01
outer loop
vertex 1.994142e+01 5.857864e-02 1.170000e+01
vertex 1.998478e+01 1.234633e-01 1.170000e+01
vertex 1.988698e+01 1.234633e-01 1.219166e+01
endloop
endfacet
facet normal 6.954387e-01 -5.481242e-01 4.646773e-01
outer loop
vertex 1.984692e+01 5.857864e-02 1.217507e+01
vertex 1.988698e+01 1.234633e-01 1.219166e+01
vertex 1.960847e+01 1.234633e-01 1.260847e+01
endloop
endfacet
facet normal 4.646773e-01 -5.481242e-01 6.954387e-01
outer loop
vertex 1.957782e+01 5.857864e-02 1.257782e+01
vertex 1.960847e+01 1.234633e-01 1.260847e+01
vertex 1.919166e+01 1.234633e-01 1.288698e+01
endloop
endfacet
facet normal 1.631730e-01 -5.481242e-01 8.203258e-01
outer loop
vertex 1.917507e+01 5.857864e-02 1.284692e+01
vertex 1.919166e+01 1.234633e-01 1.288698e+01
vertex 1.870000e+01 1.234633e-01 1.298478e+01
endloop
endfacet
facet normal 5.522086e-01 -8.264385e-01 1.098411e-01
outer loop
vertex 1.987654e+01 1.522409e-02 1.170000e+01
vertex 1.994142e+01 5.857864e-02 1.170000e+01
vertex 1.984692e+01 5.857864e-02 1.217507e+01
endloop
endfacet
facet normal 4.681398e-01 -8.264385e-01 3.128010e-01
outer loop
vertex 1.978698e+01 1.522409e-02 1.215024e+01
vertex 1.984692e+01 5.857864e-02 1.217507e+01
vertex 1.957782e+01 5.857864e-02 1.257782e+01
endloop
endfacet
facet normal 3.128010e-01 -8.264385e-01 4.681398e-01
outer loop
vertex 1.953194e+01 1.522409e-02 1.253194e+01
vertex 1.957782e+01 5.857864e-02 1.257782e+01
vertex 1.917507e+01 5.857864e-02 1.284692e+01
endloop
endfacet
facet normal 1.098411e-01 -8.264385e-01 5.522086e-01
outer loop
vertex 1.915024e+01 1.522409e-02 1.278698e+01
vertex 1.917507e+01 5.857864e-02 1.284692e+01
vertex 1.870000e+01 5.857864e-02 1.294142e+01
endloop
endfacet
facet normal 1.949436e-01 -9.800476e-01 3.877669e-02
outer loop
vertex 1.980000e+01 0.000000e+00 1.170000e+01
vertex 1.987654e+01 1.522409e-02 1.170000e+01
vertex 1.978698e+01 1.522409e-02 1.215024e+01
endloop
endfacet
facet normal 1.652652e-01 -9.800476e-01 1.104267e-01
outer loop
vertex 1.971627e+01 0.000000e+00 1.212095e+01
vertex 1.978698e+01 1.522409e-02 1.215024e+01
vertex 1.953194e+01 1.522409e-02 1.253194e+01
endloop
endfacet
facet normal 1.104267e-01 -9.800476e-01 1.652652e-01
outer loop
vertex 1.947782e+01 0.000000e+00 1.247782e+01
vertex 1.953194e+01 1.522409e-02 1.253194e+01
vertex 1.915024e+01 1.522409e-02 1.278698e+01
endloop
endfacet
facet normal 3.877669e-02 -9.800476e-01 1.949436e-01
outer loop
vertex 1.912095e+01 0.000000e+00 1.271627e+01
vertex 1.915024e+01 1.522409e-02 1.278698e+01
vertex 1.870000e+01 1.522409e-02 1.287654e+01
endloop
endfacet
facet normal 3.877669e-02 -9.800476e-01 1.949436e-01
outer loop
vertex 1.870000e+01 1.522409e-02 1.287654e+01
vertex 1.870000e+01 0.000000e+00 1.280000e+01
vertex 1.912095e+01 0.000000e+00 1.271627e+01
endloop
endfacet
facet normal 1.104267e-01 -9.800476e-01 1.652652e-01
outer loop
vertex 1.915024e+01 1.522409e-02 1.278698e+01
vertex 1.912095e+01 0.000000e+00 1.271627e+01
vertex 1.947782e+01 0.000000e+00 1.247782e+01
endloop
endfacet
facet normal 1.652652e-01 -9.800476e-01 1.104267e-01
outer loop
vertex 1.953194e+01 1.522409e-02 1.253194e+01
vertex 1.947782e+01 0.000000e+00 1.247782e+01
vertex 1.971627e+01 0.000000e+00 1.212095e+01
endloop
endfacet
facet normal 1.949436e-01 -9.800476e-01 3.877669e-02
outer loop
vertex 1.978698e+01 1.522409e-02 1.215024e+01
vertex 1.971627e+01 0.000000e+00 1.212095e+01
vertex 1.980000e+01 0.000000e+00 1.170000e+01
endloop
endfacet
facet normal 1.098411e-01 -8.264385e-01 5.522086e-01
outer loop
vertex 1.870000e+01 5.857864e-02 1.294142e+01
vertex 1.870000e+01 1.522409e-02 1.287654e+01
vertex 1.915024e+01 1.522409e-02 1.278698e+01
endloop
endfacet
facet normal 3.128010e-01 -8.264385e-01 4.681398e-01
outer loop
vertex 1.917507e+01 5.857864e-02 1.284692e+01
vertex 1.915024e+01 1.522409e-02 1.278698e+01
vertex 1.953194e+01 1.522409e-02 1.253194e+01
endloop
endfacet
facet normal 4.681398e-01 -8.264385e-01 3.128010e-01
outer loop
vertex 1.957782e+01 5.857864e-02 1.257782e+01
vertex 1.953194e+01 1.522409e-02 1.253194e+01
vertex 1.978698e+01 1.522409e-02 1.215024e+01
endloop
endfacet
facet normal 5.522086e-01 -8.264385e-01 1.098411e-01
outer loop
vertex 1.984692e+01 5.857864e-02 1.217507e+01
vertex 1.978698e+01 1.522409e-02 1.215024e+01
vertex 1.987654e+01 1.522409e-02 1.170000e+01
endloop
endfacet
facet normal 1.631730e-01 -5.481242e-01 8.203258e-01
outer loop
vertex 1.870000e+01 1.234633e-01 1.298478e+01
vertex 1.870000e+01 5.857864e-02 1.294142e+01
vertex 1.917507e+01 5.857864e-02 1.284692e+01
endloop
endfacet
facet normal 4.646773e-01 -5.481242e-01 6.954387e-01
outer loop
vertex 1.919166e+01 1.234633e-01 1.288698e+01
vertex 1.917507e+01 5.857864e-02 1.284692e+01
vertex 1.957782e+01 5.857864e-02 1.257782e+01
endloop
endfacet
facet normal 6.954387e-01 -5.481242e-01 4.646773e-01
outer loop
vertex 1.960847e+01 1.234633e-01 1.260847e+01
vertex 1.957782e+01 5.857864e-02 1.257782e+01
vertex 1.984692e+01 5.857864e-02 1.217507e+01
endloop
endfacet
facet normal 8.203258e-01 -5.481242e-01 1.631730e-01
outer loop
vertex 1.988698e+01 1.234633e-01 1.219166e+01
vertex 1.984692e+01 5.857864e-02 1.217507e+01
vertex 1.994142e+01 5.857864e-02 1.170000e+01
endloop
endfacet
facet normal 1.914805e-01 -1.914805e-01 9.626372e-01
outer loop
vertex 1.870000e+01 2.000000e-01 1.300000e+01
vertex 1.870000e+01 1.234633e-01 1.298478e+01
vertex 1.919166e+01 1.234633e-01 1.288698e+01
endloop
endfacet
facet normal 5.452902e-01 -1.914805e-01 8.160845e-01
outer loop
vertex 1.919749e+01 2.000000e-01 1.290104e+01
vertex 1.919166e+01 1.234633e-01 1.288698e+01
vertex 1.960847e+01 1.234633e-01 1.260847e+01
endloop
endfacet
facet normal 8.160845e-01 -1.914805e-01 5.452902e-01
outer loop
vertex 1.961924e+01 2.000000e-01 1.261924e+01
vertex 1.960847e+01 1.234633e-01 1.260847e+01
vertex 1.988698e+01 1.234633e-01 1.219166e+01
endloop
endfacet
facet normal 9.626372e-01 -1.914805e-01 1.914805e-01
outer loop
vertex 1.990104e+01 2.000000e-01 1.219749e+01
vertex 1.988698e+01 1.234633e-01 1.219166e+01
vertex 1.998478e+01 1.234633e-01 1.170000e+01
endloop
endfacet
facet normal 0.000000e+00 -9.807853e-01 1.950903e-01
outer loop
vertex 1.300000e+00 0.000000e+00 1.280000e+01
vertex 1.870000e+01 0.000000e+00 1.280000e+01
vertex 1.870000e+01 1.522409e-02 1.287654e+01
endloop
endfacet
facet normal -6.478942e-17 -8.314696e-01 5.555702e-01
outer loop
vertex 1.300000e+00 1.522409e-02 1.287654e+01
vertex 1.870000e+01 1.522409e-02 1.287654e+01
vertex 1.870000e+01 5.857864e-02 1.294142e+01
endloop
endfacet
facet normal 2.215542e-17 -5.555702e-01 8.314696e-01
outer loop
vertex 1.300000e+00 5.857864e-02 1.294142e+01
vertex 1.870000e+01 5.857864e-02 1.294142e+01
vertex 1.870000e+01 1.234633e-01 1.298478e+01
endloop
endfacet
facet normal 5.591838e-18 -1.950903e-01 9.807853e-01
outer loop
vertex 1.300000e+00 1.234633e-01 1.298478e+01
vertex 1.870000e+01 1.234633e-01 1.298478e+01
vertex 1.870000e+01 2.000000e-01 1.300000e+01
endloop
endfacet
facet normal 0.000000e+00 -1.950903e-01 9.807853e-01
outer loop
vertex 1.870000e+01 2.000000e-01 1.300000e+01
vertex 1.300000e+00 2.000000e-01 1.300000e+01
vertex 1.300000e+00 1.234633e-01 1.298478e+01
endloop
endfacet
facet normal 1.592421e-17 -5.555702e-01 8.314696e-01
outer loop
vertex 1.870000e+01 1.234633e-01 1.298478e+01
vertex 1.300000e+00 1.234633e-01 1.298478e+01
vertex 1.300000e+00 5.857864e-02 1.294142e+01
endloop
endfacet
facet normal 3.315793e-17 -8.314696e-01 5.555702e-01
outer loop
vertex 1.870000e+01 5.857864e-02 1.294142e+01
vertex 1.300000e+00 5.857864e-02 1.294142e+01
vertex 1.300000e+00 1.522409e-02 1.287654e+01
endloop
endfacet
facet normal -3.007726e-18 -9.807853e-01 1.950903e-01
outer loop
vertex 1.870000e+01 1.522409e-02 1.287654e+01
vertex 1.300000e+00 1.522409e-02 1.287654e+01
vertex 1.300000e+00 0.000000e+00 1.280000e+01
endloop
endfacet
facet normal 0.000000e+00 -1.000000e+00 0.000000e+00
outer loop
vertex 8.790482e-01 0.000000e+00 2.837325e-01
vertex 2.000000e-01 0.000000e+00 1.300000e+00
vertex 2.837325e-01 0.000000e+00 8.790482e-01
endloop
endfacet
facet normal 0.000000e+00 -1.000000e+00 0.000000e+00
outer loop
vertex 2.837325e-01 0.000000e+00 8.790482e-01
vertex 5.221825e-01 0.000000e+00 5.221825e-01
vertex 8.790482e-01 0.000000e+00 2.837325e-01
endloop
endfacet
facet normal 0.000000e+00 -1.000000e+00 0.000000e+00
outer loop
vertex 1.300000e+00 0.000000e+00 2.000000e-01
vertex 1.300000e+00 0.000000e+00 1.280000e+01
vertex 2.000000e-01 0.000000e+00 1.170000e+01
endloop
endfacet
facet normal 0.000000e+00 -1.000000e+00 0.000000e+00
outer loop
vertex 1.300000e+00 0.000000e+00 1.280000e+01
vertex 5.221825e-01 0.000000e+00 1.247782e+01
vertex 2.837325e-01 0.000000e+00 1.212095e+01
endloop
endfacet
facet normal 0.000000e+00 -1.000000e+00 0.000000e+00
outer loop
vertex 1.870000e+01 0.000000e+00 1.280000e+01
vertex 1.971627e+01 0.000000e+00 1.212095e+01
vertex 1.947782e+01 0.000000e+00 1.247782e+01
endloop
endfacet
facet normal 0.000000e+00 -1.000000e+00 0.000000e+00
outer loop
vertex 2.000000e-01 0.000000e+00 1.170000e+01
vertex 2.000000e-01 0.000000e+00 1.300000e+00
vertex 1.300000e+00 0.000000e+00 2.000000e-01
endloop
endfacet
facet normal 0.000000e+00 -1.000000e+00 0.000000e+00
outer loop
vertex 1.300000e+00 0.000000e+00 1.280000e+01
vertex 8.790482e-01 0.000000e+00 1.271627e+01
vertex 5.221825e-01 0.000000e+00 1.247782e+01
endloop
endfacet
facet normal 0.000000e+00 -1.000000e+00 0.000000e+00
outer loop
vertex 1.870000e+01 0.000000e+00 1.280000e+01
vertex 1.980000e+01 0.000000e+00 1.170000e+01
vertex 1.971627e+01 0.000000e+00 1.212095e+01
endloop
endfacet
facet normal 0.000000e+00 -1.000000e+00 0.000000e+00
outer loop
vertex 1.870000e+01 0.000000e+00 1.280000e+01
vertex 1.870000e+01 0.000000e+00 2.000000e-01
vertex 1.980000e+01 0.000000e+00 1.300000e+00
endloop
endfacet
facet normal 0.000000e+00 -1.000000e+00 0.000000e+00
outer loop
vertex 1.870000e+01 0.000000e+00 2.000000e-01
vertex 1.912095e+01 0.000000e+00 2.837325e-01
vertex 1.947782e+01 0.000000e+00 5.221825e-01
endloop
endfacet
facet normal 0.000000e+00 -1.000000e+00 -0.000000e+00
outer loop
vertex 2.837325e-01 0.000000e+00 1.212095e+01
vertex 2.000000e-01 0.000000e+00 1.170000e+01
vertex 1.300000e+00 0.000000e+00 1.280000e+01
endloop
endfacet
facet normal -0.000000e+00 -1.000000e+00 0.000000e+00
outer loop
vertex 1.870000e+01 0.000000e+00 1.280000e+01
vertex 1.300000e+00 0.000000e+00 1.280000e+01
vertex 1.300000e+00 0.000000e+00 2.000000e-01
endloop
endfacet
facet normal 0.000000e+00 -1.000000e+00 0.000000e+00
outer loop
vertex 1.980000e+01 0.000000e+00 1.300000e+00
vertex 1.980000e+01 0.000000e+00 1.170000e+01
vertex 1.870000e+01 0.000000e+00 1.280000e+01
endloop
endfacet
facet normal -0.000000e+00 -1.000000e+00 0.000000e+00
outer loop
vertex 1.947782e+01 0.000000e+00 5.221825e-01
vertex 1.971627e+01 0.000000e+00 8.790482e-01
vertex 1.870000e+01 0.000000e+00 2.000000e-01
endloop
endfacet
facet normal 0.000000e+00 -1.000000e+00 0.000000e+00
outer loop
vertex 1.300000e+00 0.000000e+00 2.000000e-01
vertex 1.870000e+01 0.000000e+00 2.000000e-01
vertex 1.870000e+01 0.000000e+00 1.280000e+01
endloop
endfacet
facet normal -0.000000e+00 -1.000000e+00 0.000000e+00
outer loop
vertex 1.971627e+01 0.000000e+00 8.790482e-01
vertex 1.980000e+01 0.000000e+00 1.300000e+00
vertex 1.870000e+01 0.000000e+00 2.000000e-01
endloop
endfacet
facet normal 0.000000e+00 -1.000000e+00 0.000000e+00
outer loop
vertex 1.947782e+01 0.000000e+00 1.247782e+01
vertex 1.912095e+01 0.000000e+00 1.271627e+01
vertex 1.870000e+01 0.000000e+00 1.280000e+01
endloop
endfacet
facet normal 0.000000e+00 -1.000000e+00 0.000000e+00
outer loop
vertex 8.790482e-01 0.000000e+00 2.837325e-01
vertex 1.300000e+00 0.000000e+00 2.000000e-01
vertex 2.000000e-01 0.000000e+00 1.300000e+00
endloop
endfacet
facet normal 3.889974e-18 -9.807853e-01 -1.950903e-01
outer loop
vertex 1.870000e+01 0.000000e+00 2.000000e-01
vertex 1.300000e+00 0.000000e+00 2.000000e-01
vertex 1.300000e+00 1.522409e-02 1.234633e-01
endloop
endfacet
facet normal 1.107771e-17 -8.314696e-01 -5.555702e-01
outer loop
vertex 1.870000e+01 1.522409e-02 1.234633e-01
vertex 1.300000e+00 1.522409e-02 1.234633e-01
vertex 1.300000e+00 5.857864e-02 5.857864e-02
endloop
endfacet
facet normal 1.657896e-17 -5.555702e-01 -8.314696e-01
outer loop
vertex 1.870000e+01 5.857864e-02 5.857864e-02
vertex 1.300000e+00 5.857864e-02 5.857864e-02
vertex 1.300000e+00 1.234633e-01 1.522409e-02
endloop
endfacet
facet normal 1.955622e-17 -1.950903e-01 -9.807853e-01
outer loop
vertex 1.870000e+01 1.234633e-01 1.522409e-02
vertex 1.300000e+00 1.234633e-01 1.522409e-02
vertex 1.300000e+00 2.000000e-01 0.000000e+00
endloop
endfacet
facet normal 0.000000e+00 -1.950903e-01 -9.807853e-01
outer loop
vertex 1.300000e+00 2.000000e-01 0.000000e+00
vertex 1.870000e+01 2.000000e-01 0.000000e+00
vertex 1.870000e+01 1.234633e-01 1.522409e-02
endloop
endfacet
facet normal 1.657896e-17 -5.555702e-01 -8.314696e-01
outer loop
vertex 1.300000e+00 1.234633e-01 1.522409e-02
vertex 1.870000e+01 1.234633e-01 1.522409e-02
vertex 1.870000e+01 5.857864e-02 5.857864e-02
endloop
endfacet
facet normal 1.107771e-17 -8.314696e-01 -5.555702e-01
outer loop
vertex 1.300000e+00 5.857864e-02 5.857864e-02
vertex 1.870000e+01 5.857864e-02 5.857864e-02
vertex 1.870000e+01 1.522409e-02 1.234633e-01
endloop
endfacet
facet normal 3.889974e-18 -9.807853e-01 -1.950903e-01
outer loop
vertex 1.300000e+00 1.522409e-02 1.234633e-01
vertex 1.870000e+01 1.522409e-02 1.234633e-01
vertex 1.870000e+01 0.000000e+00 2.000000e-01
endloop
endfacet
facet normal 1.950903e-01 0.000000e+00 -9.807853e-01
outer loop
vertex 1.870000e+01 2.000000e-01 0.000000e+00
vertex 1.870000e+01 1.300000e+00 0.000000e+00
vertex 1.919749e+01 1.300000e+00 9.895661e-02
endloop
endfacet
facet normal 5.555702e-01 0.000000e+00 -8.314696e-01
outer loop
vertex 1.919749e+01 2.000000e-01 9.895661e-02
vertex 1.919749e+01 1.300000e+00 9.895661e-02
vertex 1.961924e+01 1.300000e+00 3.807612e-01
endloop
endfacet
facet normal 8.314696e-01 0.000000e+00 -5.555702e-01
outer loop
vertex 1.961924e+01 2.000000e-01 3.807612e-01
vertex 1.961924e+01 1.300000e+00 3.807612e-01
vertex 1.990104e+01 1.300000e+00 8.025115e-01
endloop
endfacet
facet normal 9.807853e-01 0.000000e+00 -1.950903e-01
outer loop
vertex 1.990104e+01 2.000000e-01 8.025115e-01
vertex 1.990104e+01 1.300000e+00 8.025115e-01
vertex 2.000000e+01 1.300000e+00 1.300000e+00
endloop
endfacet
facet normal 9.807853e-01 0.000000e+00 -1.950903e-01
outer loop
vertex 2.000000e+01 1.300000e+00 1.300000e+00
vertex 2.000000e+01 2.000000e-01 1.300000e+00
vertex 1.990104e+01 2.000000e-01 8.025115e-01
endloop
endfacet
facet normal 8.314696e-01 0.000000e+00 -5.555702e-01
outer loop
vertex 1.990104e+01 1.300000e+00 8.025115e-01
vertex 1.990104e+01 2.000000e-01 8.025115e-01
vertex 1.961924e+01 2.000000e-01 3.807612e-01
endloop
endfacet
facet normal 5.555702e-01 0.000000e+00 -8.314696e-01
outer loop
vertex 1.961924e+01 1.300000e+00 3.807612e-01
vertex 1.961924e+01 2.000000e-01 3.807612e-01
vertex 1.919749e+01 2.000000e-01 9.895661e-02
endloop
endfacet
facet normal 1.950903e-01 0.000000e+00 -9.807853e-01
outer loop
vertex 1.919749e+01 1.300000e+00 9.895661e-02
vertex 1.919749e+01 2.000000e-01 9.895661e-02
vertex 1.870000e+01 2.000000e-01 0.000000e+00
endloop
endfacet
facet normal -9.626372e-01 -1.914805e-01 -1.914805e-01
outer loop
vertex 1.522409e-02 1.234633e-01 1.300000e+00
vertex 0.000000e+00 2.000000e-01 1.300000e+00
vertex 9.895661e-02 2.000000e-01 8.025115e-01
endloop
endfacet
facet normal -8.160845e-01 -1.914805e-01 -5.452902e-01
outer loop
vertex 1.130218e-01 1.234633e-01 8.083375e-01
vertex 9.895661e-02 2.000000e-01 8.025115e-01
vertex 3.807612e-01 2.000000e-01 3.807612e-01
endloop
endfacet
facet normal -5.452902e-01 -1.914805e-01 -8.160845e-01
outer loop
vertex 3.915262e-01 1.234633e-01 3.915262e-01
vertex 3.807612e-01 2.000000e-01 3.807612e-01
vertex 8.025115e-01 2.000000e-01 9.895661e-02
endloop
endfacet
facet normal -1.914805e-01 -1.914805e-01 -9.626372e-01
outer loop
vertex 8.083375e-01 1.234633e-01 1.130218e-01
vertex 8.025115e-01 2.000000e-01 9.895661e-02
vertex 1.300000e+00 2.000000e-01 0.000000e+00
endloop
endfacet
facet normal -8.203258e-01 -5.481242e-01 -1.631730e-01
outer loop
vertex 5.857864e-02 5.857864e-02 1.300000e+00
vertex 1.522409e-02 1.234633e-01 1.300000e+00
vertex 1.130218e-01 1.234633e-01 8.083375e-01
endloop
endfacet
facet normal -6.954387e-01 -5.481242e-01 -4.646773e-01
outer loop
vertex 1.530762e-01 5.857864e-02 8.249286e-01
vertex 1.130218e-01 1.234633e-01 8.083375e-01
vertex 3.915262e-01 1.234633e-01 3.915262e-01
endloop
endfacet
facet normal -4.646773e-01 -5.481242e-01 -6.954387e-01
outer loop
vertex 4.221825e-01 5.857864e-02 4.221825e-01
vertex 3.915262e-01 1.234633e-01 3.915262e-01
vertex 8.083375e-01 1.234633e-01 1.130218e-01
endloop
endfacet
facet normal -1.631730e-01 -5.481242e-01 -8.203258e-01
outer loop
vertex 8.249286e-01 5.857864e-02 1.530762e-01
vertex 8.083375e-01 1.234633e-01 1.130218e-01
vertex 1.300000e+00 1.234633e-01 1.522409e-02
endloop
endfacet
facet normal -5.522086e-01 -8.264385e-01 -1.098411e-01
outer loop
vertex 1.234633e-01 1.522409e-02 1.300000e+00
vertex 5.857864e-02 5.857864e-02 1.300000e+00
vertex 1.530762e-01 5.857864e-02 8.249286e-01
endloop
endfacet
facet normal -4.681398e-01 -8.264385e-01 -3.128010e-01
outer loop
vertex 2.130218e-01 1.522409e-02 8.497589e-01
vertex 1.530762e-01 5.857864e-02 8.249286e-01
vertex 4.221825e-01 5.857864e-02 4.221825e-01
endloop
endfacet
facet normal -3.128010e-01 -8.264385e-01 -4.681398e-01
outer loop
vertex 4.680629e-01 1.522409e-02 4.680629e-01
vertex 4.221825e-01 5.857864e-02 4.221825e-01
vertex 8.249286e-01 5.857864e-02 1.530762e-01
endloop
endfacet
facet normal -1.098411e-01 -8.264385e-01 -5.522086e-01
outer loop
vertex 8.497589e-01 1.522409e-02 2.130218e-01
vertex 8.249286e-01 5.857864e-02 1.530762e-01
vertex 1.300000e+00 5.857864e-02 5.857864e-02
endloop
endfacet
facet normal -1.949436e-01 -9.800476e-01 -3.877669e-02
outer loop
vertex 2.000000e-01 0.000000e+00 1.300000e+00
vertex 1.234633e-01 1.522409e-02 1.300000e+00
vertex 2.130218e-01 1.522409e-02 8.497589e-01
endloop
endfacet
facet normal -1.652652e-01 -9.800476e-01 -1.104267e-01
outer loop
vertex 2.837325e-01 0.000000e+00 8.790482e-01
vertex 2.130218e-01 1.522409e-02 8.497589e-01
vertex 4.680629e-01 1.522409e-02 4.680629e-01
endloop
endfacet
facet normal -1.104267e-01 -9.800476e-01 -1.652652e-01
outer loop
vertex 5.221825e-01 0.000000e+00 5.221825e-01
vertex 4.680629e-01 1.522409e-02 4.680629e-01
vertex 8.497589e-01 1.522409e-02 2.130218e-01
endloop
endfacet
facet normal -3.877669e-02 -9.800476e-01 -1.949436e-01
outer loop
vertex 8.790482e-01 0.000000e+00 2.837325e-01
vertex 8.497589e-01 1.522409e-02 2.130218e-01
vertex 1.300000e+00 1.522409e-02 1.234633e-01
endloop
endfacet
facet normal -3.877669e-02 -9.800476e-01 -1.949436e-01
outer loop
vertex 1.300000e+00 1.522409e-02 1.234633e-01
vertex 1.300000e+00 0.000000e+00 2.000000e-01
vertex 8.790482e-01 0.000000e+00 2.837325e-01
endloop
endfacet
facet normal -1.104267e-01 -9.800476e-01 -1.652652e-01
outer loop
vertex 8.497589e-01 1.522409e-02 2.130218e-01
vertex 8.790482e-01 0.000000e+00 2.837325e-01
vertex 5.221825e-01 0.000000e+00 5.221825e-01
endloop
endfacet
facet normal -1.652652e-01 -9.800476e-01 -1.104267e-01
outer loop
vertex 4.680629e-01 1.522409e-02 4.680629e-01
vertex 5.221825e-01 0.000000e+00 5.221825e-01
vertex 2.837325e-01 0.000000e+00 8.790482e-01
endloop
endfacet
facet normal -1.949436e-01 -9.800476e-01 -3.877669e-02
outer loop
vertex 2.130218e-01 1.522409e-02 8.497589e-01
vertex 2.837325e-01 0.000000e+00 8.790482e-01
vertex 2.000000e-01 0.000000e+00 1.300000e+00
endloop
endfacet
facet normal -1.098411e-01 -8.264385e-01 -5.522086e-01
outer loop
vertex 1.300000e+00 5.857864e-02 5.857864e-02
vertex 1.300000e+00 1.522409e-02 1.234633e-01
vertex 8.497589e-01 1.522409e-02 2.130218e-01
endloop
endfacet
facet normal -3.128010e-01 -8.264385e-01 -4.681398e-01
outer loop
vertex 8.249286e-01 5.857864e-02 1.530762e-01
vertex 8.497589e-01 1.522409e-02 2.130218e-01
vertex 4.680629e-01 1.522409e-02 4.680629e-01
endloop
endfacet
facet normal -4.681398e-01 -8.264385e-01 -3.128010e-01
outer loop
vertex 4.221825e-01 5.857864e-02 4.221825e-01
vertex 4.680629e-01 1.522409e-02 4.680629e-01
vertex 2.130218e-01 1.522409e-02 8.497589e-01
endloop
endfacet
facet normal -5.522086e-01 -8.264385e-01 -1.098411e-01
outer loop
vertex 1.530762e-01 5.857864e-02 8.249286e-01
vertex 2.130218e-01 1.522409e-02 8.497589e-01
vertex 1.234633e-01 1.522409e-02 1.300000e+00
endloop
endfacet
facet normal -1.631730e-01 -5.481242e-01 -8.203258e-01
outer loop
vertex 1.300000e+00 1.234633e-01 1.522409e-02
vertex 1.300000e+00 5.857864e-02 5.857864e-02
vertex 8.249286e-01 5.857864e-02 1.530762e-01
endloop
endfacet
facet normal -4.646773e-01 -5.481242e-01 -6.954387e-01
outer loop
vertex 8.083375e-01 1.234633e-01 1.130218e-01
vertex 8.249286e-01 5.857864e-02 1.530762e-01
vertex 4.221825e-01 5.857864e-02 4.221825e-01
endloop
endfacet
facet normal -6.954387e-01 -5.481242e-01 -4.646773e-01
outer loop
vertex 3.915262e-01 1.234633e-01 3.915262e-01
vertex 4.221825e-01 5.857864e-02 4.221825e-01
vertex 1.530762e-01 5.857864e-02 8.249286e-01
endloop
endfacet
facet normal -8.203258e-01 -5.481242e-01 -1.631730e-01
outer loop
vertex 1.130218e-01 1.234633e-01 8.083375e-01
vertex 1.530762e-01 5.857864e-02 8.249286e-01
vertex 5.857864e-02 5.857864e-02 1.300000e+00
endloop
endfacet
facet normal -1.914805e-01 -1.914805e-01 -9.626372e-01
outer loop
vertex 1.300000e+00 2.000000e-01 0.000000e+00
vertex 1.300000e+00 1.234633e-01 1.522409e-02
vertex 8.083375e-01 1.234633e-01 1.130218e-01
endloop
endfacet
facet normal -5.452902e-01 -1.914805e-01 -8.160845e-01
outer loop
vertex 8.025115e-01 2.000000e-01 9.895661e-02
vertex 8.083375e-01 1.234633e-01 1.130218e-01
vertex 3.915262e-01 1.234633e-01 3.915262e-01
endloop
endfacet
facet normal -8.160845e-01 -1.914805e-01 -5.452902e-01
outer loop
vertex 3.807612e-01 2.000000e-01 3.807612e-01
vertex 3.915262e-01 1.234633e-01 3.915262e-01
vertex 1.130218e-01 1.234633e-01 8.083375e-01
endloop
endfacet
facet normal -9.626372e-01 -1.914805e-01 -1.914805e-01
outer loop
vertex 9.895661e-02 2.000000e-01 8.025115e-01
vertex 1.130218e-01 1.234633e-01 8.083375e-01
vertex 1.522409e-02 1.234633e-01 1.300000e+00
endloop
endfacet
facet normal 0.000000e+00 0.000000e+00 -1.000000e+00
outer loop
vertex 1.870000e+01 2.000000e-01 0.000000e+00
vertex 1.300000e+00 2.000000e-01 0.000000e+00
vertex 1.300000e+00 1.300000e+00 0.000000e+00
endloop
endfacet
facet normal 0.000000e+00 0.000000e+00 -1.000000e+00
outer loop
vertex 1.300000e+00 1.300000e+00 0.000000e+00
vertex 1.870000e+01 1.300000e+00 0.000000e+00
vertex 1.870000e+01 2.000000e-01 0.000000e+00
endloop
endfacet
facet normal -1.914805e-01 -1.914805e-01 9.626372e-01
outer loop
vertex 1.300000e+00 1.234633e-01 1.298478e+01
vertex 1.300000e+00 2.000000e-01 1.300000e+01
vertex 8.025115e-01 2.000000e-01 1.290104e+01
endloop
endfacet
facet normal -5.452902e-01 -1.914805e-01 8.160845e-01
outer loop
vertex 8.083375e-01 1.234633e-01 1.288698e+01
vertex 8.025115e-01 2.000000e-01 1.290104e+01
vertex 3.807612e-01 2.000000e-01 1.261924e+01
endloop
endfacet
facet normal -8.160845e-01 -1.914805e-01 5.452902e-01
outer loop
vertex 3.915262e-01 1.234633e-01 1.260847e+01
vertex 3.807612e-01 2.000000e-01 1.261924e+01
vertex 9.895661e-02 2.000000e-01 1.219749e+01
endloop
endfacet
facet normal -9.626372e-01 -1.914805e-01 1.914805e-01
outer loop
vertex 1.130218e-01 1.234633e-01 1.219166e+01
vertex 9.895661e-02 2.000000e-01 1.219749e+01
vertex 0.000000e+00 2.000000e-01 1.170000e+01
endloop
endfacet
facet normal -1.631730e-01 -5.481242e-01 8.203258e-01
outer loop
vertex 1.300000e+00 5.857864e-02 1.294142e+01
vertex 1.300000e+00 1.234633e-01 1.298478e+01
vertex 8.083375e-01 1.234633e-01 1.288698e+01
endloop
endfacet
facet normal -4.646773e-01 -5.481242e-01 6.954387e-01
outer loop
vertex 8.249286e-01 5.857864e-02 1.284692e+01
vertex 8.083375e-01 1.234633e-01 1.288698e+01
vertex 3.915262e-01 1.234633e-01 1.260847e+01
endloop
endfacet
facet normal -6.954387e-01 -5.481242e-01 4.646773e-01
outer loop
vertex 4.221825e-01 5.857864e-02 1.257782e+01
vertex 3.915262e-01 1.234633e-01 1.260847e+01
vertex 1.130218e-01 1.234633e-01 1.219166e+01
endloop
endfacet
facet normal -8.203258e-01 -5.481242e-01 1.631730e-01
outer loop
vertex 1.530762e-01 5.857864e-02 1.217507e+01
vertex 1.130218e-01 1.234633e-01 1.219166e+01
vertex 1.522409e-02 1.234633e-01 1.170000e+01
endloop
endfacet
facet normal -1.098411e-01 -8.264385e-01 5.522086e-01
outer loop
vertex 1.300000e+00 1.522409e-02 1.287654e+01
vertex 1.300000e+00 5.857864e-02 1.294142e+01
vertex 8.249286e-01 5.857864e-02 1.284692e+01
endloop
endfacet
facet normal -3.128010e-01 -8.264385e-01 4.681398e-01
outer loop
vertex 8.497589e-01 1.522409e-02 1.278698e+01
vertex 8.249286e-01 5.857864e-02 1.284692e+01
vertex 4.221825e-01 5.857864e-02 1.257782e+01
endloop
endfacet
facet normal -4.681398e-01 -8.264385e-01 3.128010e-01
outer loop
vertex 4.680629e-01 1.522409e-02 1.253194e+01
vertex 4.221825e-01 5.857864e-02 1.257782e+01
vertex 1.530762e-01 5.857864e-02 1.217507e+01
endloop
endfacet
facet normal -5.522086e-01 -8.264385e-01 1.098411e-01
outer loop
vertex 2.130218e-01 1.522409e-02 1.215024e+01
vertex 1.530762e-01 5.857864e-02 1.217507e+01
vertex 5.857864e-02 5.857864e-02 1.170000e+01
endloop
endfacet
facet normal -3.877669e-02 -9.800476e-01 1.949436e-01
outer loop
vertex 1.300000e+00 0.000000e+00 1.280000e+01
vertex 1.300000e+00 1.522409e-02 1.287654e+01
vertex 8.497589e-01 1.522409e-02 1.278698e+01
endloop
endfacet
facet normal -1.104267e-01 -9.800476e-01 1.652652e-01
outer loop
vertex 8.790482e-01 0.000000e+00 1.271627e+01
vertex 8.497589e-01 1.522409e-02 1.278698e+01
vertex 4.680629e-01 1.522409e-02 1.253194e+01
endloop
endfacet
facet normal -1.652652e-01 -9.800476e-01 1.104267e-01
outer loop
vertex 5.221825e-01 0.000000e+00 1.247782e+01
vertex 4.680629e-01 1.522409e-02 1.253194e+01
vertex 2.130218e-01 1.522409e-02 1.215024e+01
endloop
endfacet
facet normal -1.949436e-01 -9.800476e-01 3.877669e-02
outer loop
vertex 2.837325e-01 0.000000e+00 1.212095e+01
vertex 2.130218e-01 1.522409e-02 1.215024e+01
vertex 1.234633e-01 1.522409e-02 1.170000e+01
endloop
endfacet
facet normal -1.949436e-01 -9.800476e-01 3.877669e-02
outer loop
vertex 1.234633e-01 1.522409e-02 1.170000e+01
vertex 2.000000e-01 0.000000e+00 1.170000e+01
vertex 2.837325e-01 0.000000e+00 1.212095e+01
endloop
endfacet
facet normal -1.652652e-01 -9.800476e-01 1.104267e-01
outer loop
vertex 2.130218e-01 1.522409e-02 1.215024e+01
vertex 2.837325e-01 0.000000e+00 1.212095e+01
vertex 5.221825e-01 0.000000e+00 1.247782e+01
endloop
endfacet
facet normal -1.104267e-01 -9.800476e-01 1.652652e-01
outer loop
vertex 4.680629e-01 1.522409e-02 1.253194e+01
vertex 5.221825e-01 0.000000e+00 1.247782e+01
vertex 8.790482e-01 0.000000e+00 1.271627e+01
endloop
endfacet
facet normal -3.877669e-02 -9.800476e-01 1.949436e-01
outer loop
vertex 8.497589e-01 1.522409e-02 1.278698e+01
vertex 8.790482e-01 0.000000e+00 1.271627e+01
vertex 1.300000e+00 0.000000e+00 1.280000e+01
endloop
endfacet
facet normal -5.522086e-01 -8.264385e-01 1.098411e-01
outer loop
vertex 5.857864e-02 5.857864e-02 1.170000e+01
vertex 1.234633e-01 1.522409e-02 1.170000e+01
vertex 2.130218e-01 1.522409e-02 1.215024e+01
endloop
endfacet
facet normal -4.681398e-01 -8.264385e-01 3.128010e-01
outer loop
vertex 1.530762e-01 5.857864e-02 1.217507e+01
vertex 2.130218e-01 1.522409e-02 1.215024e+01
vertex 4.680629e-01 1.522409e-02 1.253194e+01
endloop
endfacet
facet normal -3.128010e-01 -8.264385e-01 4.681398e-01
outer loop
vertex 4.221825e-01 5.857864e-02 1.257782e+01
vertex 4.680629e-01 1.522409e-02 1.253194e+01
vertex 8.497589e-01 1.522409e-02 1.278698e+01
endloop
endfacet
facet normal -1.098411e-01 -8.264385e-01 5.522086e-01
outer loop
vertex 8.249286e-01 5.857864e-02 1.284692e+01
vertex 8.497589e-01 1.522409e-02 1.278698e+01
vertex 1.300000e+00 1.522409e-02 1.287654e+01
endloop
endfacet
facet normal -8.203258e-01 -5.481242e-01 1.631730e-01
outer loop
vertex 1.522409e-02 1.234633e-01 1.170000e+01
vertex 5.857864e-02 5.857864e-02 1.170000e+01
vertex 1.530762e-01 5.857864e-02 1.217507e+01
endloop
endfacet
facet normal -6.954387e-01 -5.481242e-01 4.646773e-01
outer loop
vertex 1.130218e-01 1.234633e-01 1.219166e+01
vertex 1.530762e-01 5.857864e-02 1.217507e+01
vertex 4.221825e-01 5.857864e-02 1.257782e+01
endloop
endfacet
facet normal -4.646773e-01 -5.481242e-01 6.954387e-01
outer loop
vertex 3.915262e-01 1.234633e-01 1.260847e+01
vertex 4.221825e-01 5.857864e-02 1.257782e+01
vertex 8.249286e-01 5.857864e-02 1.284692e+01
endloop
endfacet
facet normal -1.631730e-01 -5.481242e-01 8.203258e-01
outer loop
vertex 8.083375e-01 1.234633e-01 1.288698e+01
vertex 8.249286e-01 5.857864e-02 1.284692e+01
vertex 1.300000e+00 5.857864e-02 1.294142e+01
endloop
endfacet
facet normal -9.626372e-01 -1.914805e-01 1.914805e-01
outer loop
vertex 0.000000e+00 2.000000e-01 1.170000e+01
vertex 1.522409e-02 1.234633e-01 1.170000e+01
vertex 1.130218e-01 1.234633e-01 1.219166e+01
endloop
endfacet
facet normal -8.160845e-01 -1.914805e-01 5.452902e-01
outer loop
vertex 9.895661e-02 2.000000e-01 1.219749e+01
vertex 1.130218e-01 1.234633e-01 1.219166e+01
vertex 3.915262e-01 1.234633e-01 1.260847e+01
endloop
endfacet
facet normal -5.452902e-01 -1.914805e-01 8.160845e-01
outer loop
vertex 3.807612e-01 2.000000e-01 1.261924e+01
vertex 3.915262e-01 1.234633e-01 1.260847e+01
vertex 8.083375e-01 1.234633e-01 1.288698e+01
endloop
endfacet
facet normal -1.914805e-01 -1.914805e-01 9.626372e-01
outer loop
vertex 8.025115e-01 2.000000e-01 1.290104e+01
vertex 8.083375e-01 1.234633e-01 1.288698e+01
vertex 1.300000e+00 1.234633e-01 1.298478e+01
endloop
endfacet
facet normal 0.000000e+00 0.000000e+00 1.000000e+00
outer loop
vertex 1.300000e+00 2.000000e-01 1.300000e+01
vertex 1.870000e+01 2.000000e-01 1.300000e+01
vertex 1.870000e+01 1.300000e+00 1.300000e+01
endloop
endfacet
facet normal 0.000000e+00 0.000000e+00 1.000000e+00
outer loop
vertex 1.870000e+01 1.300000e+00 1.300000e+01
vertex 1.300000e+00 1.300000e+00 1.300000e+01
vertex 1.300000e+00 2.000000e-01 1.300000e+01
endloop
endfacet
facet normal -1.950903e-01 -9.807853e-01 -6.508226e-18
outer loop
vertex 2.000000e-01 0.000000e+00 1.300000e+00
vertex 2.000000e-01 0.000000e+00 1.170000e+01
vertex 1.234633e-01 1.522409e-02 1.170000e+01
endloop
endfacet
facet normal -5.555702e-01 -8.314696e-01 1.112636e-17
outer loop
vertex 1.234633e-01 1.522409e-02 1.300000e+00
vertex 1.234633e-01 1.522409e-02 1.170000e+01
vertex 5.857864e-02 5.857864e-02 1.170000e+01
endloop
endfacet
facet normal -8.314696e-01 -5.555702e-01 -1.277348e-17
outer loop
vertex 5.857864e-02 5.857864e-02 1.300000e+00
vertex 5.857864e-02 5.857864e-02 1.170000e+01
vertex 1.522409e-02 1.234633e-01 1.170000e+01
endloop
endfacet
facet normal -9.807853e-01 -1.950903e-01 -3.515965e-17
outer loop
vertex 1.522409e-02 1.234633e-01 1.300000e+00
vertex 1.522409e-02 1.234633e-01 1.170000e+01
vertex 0.000000e+00 2.000000e-01 1.170000e+01
endloop
endfacet
facet normal -9.807853e-01 -1.950903e-01 -0.000000e+00
outer loop
vertex 0.000000e+00 2.000000e-01 1.170000e+01
vertex 0.000000e+00 2.000000e-01 1.300000e+00
vertex 1.522409e-02 1.234633e-01 1.300000e+00
endloop
endfacet
facet normal -8.314696e-01 -5.555702e-01 -3.468808e-17
outer loop
vertex 1.522409e-02 1.234633e-01 1.170000e+01
vertex 1.522409e-02 1.234633e-01 1.300000e+00
vertex 5.857864e-02 5.857864e-02 1.300000e+00
endloop
endfacet
facet normal -5.555702e-01 -8.314696e-01 -3.060628e-17
outer loop
vertex 5.857864e-02 5.857864e-02 1.170000e+01
vertex 5.857864e-02 5.857864e-02 1.300000e+00
vertex 1.234633e-01 1.522409e-02 1.300000e+00
endloop
endfacet
facet normal -1.950903e-01 -9.807853e-01 -4.061439e-17
outer loop
vertex 1.234633e-01 1.522409e-02 1.170000e+01
vertex 1.234633e-01 1.522409e-02 1.300000e+00
vertex 2.000000e-01 0.000000e+00 1.300000e+00
endloop
endfacet
facet normal -1.000000e+00 0.000000e+00 0.000000e+00
outer loop
vertex 0.000000e+00 2.000000e-01 1.300000e+00
vertex 0.000000e+00 2.000000e-01 1.170000e+01
vertex 0.000000e+00 1.300000e+00 1.170000e+01
endloop
endfacet
facet normal -1.000000e+00 0.000000e+00 -0.000000e+00
outer loop
vertex 0.000000e+00 1.300000e+00 1.170000e+01
vertex 0.000000e+00 1.300000e+00 1.300000e+00
vertex 0.000000e+00 2.000000e-01 1.300000e+00
endloop
endfacet
facet normal -1.950903e-01 0.000000e+00 9.807853e-01
outer loop
vertex 1.300000e+00 2.000000e-01 1.300000e+01
vertex 1.300000e+00 1.300000e+00 1.300000e+01
vertex 8.025115e-01 1.300000e+00 1.290104e+01
endloop
endfacet
facet normal -5.555702e-01 0.000000e+00 8.314696e-01
outer loop
vertex 8.025115e-01 2.000000e-01 1.290104e+01
vertex 8.025115e-01 1.300000e+00 1.290104e+01
vertex 3.807612e-01 1.300000e+00 1.261924e+01
endloop
endfacet
facet normal -8.314696e-01 0.000000e+00 5.555702e-01
outer loop
vertex 3.807612e-01 2.000000e-01 1.261924e+01
vertex 3.807612e-01 1.300000e+00 1.261924e+01
vertex 9.895661e-02 1.300000e+00 1.219749e+01
endloop
endfacet
facet normal -9.807853e-01 0.000000e+00 1.950903e-01
outer loop
vertex 9.895661e-02 2.000000e-01 1.219749e+01
vertex 9.895661e-02 1.300000e+00 1.219749e+01
vertex 0.000000e+00 1.300000e+00 1.170000e+01
endloop
endfacet
facet normal -9.807853e-01 0.000000e+00 1.950903e-01
outer loop
vertex 0.000000e+00 1.300000e+00 1.170000e+01
vertex 0.000000e+00 2.000000e-01 1.170000e+01
vertex 9.895661e-02 2.000000e-01 1.219749e+01
endloop
endfacet
facet normal -8.314696e-01 0.000000e+00 5.555702e-01
outer loop
vertex 9.895661e-02 1.300000e+00 1.219749e+01
vertex 9.895661e-02 2.000000e-01 1.219749e+01
vertex 3.807612e-01 2.000000e-01 1.261924e+01
endloop
endfacet
facet normal -5.555702e-01 0.000000e+00 8.314696e-01
outer loop
vertex 3.807612e-01 1.300000e+00 1.261924e+01
vertex 3.807612e-01 2.000000e-01 1.261924e+01
vertex 8.025115e-01 2.000000e-01 1.290104e+01
endloop
endfacet
facet normal -1.950903e-01 0.000000e+00 9.807853e-01
outer loop
vertex 8.025115e-01 1.300000e+00 1.290104e+01
vertex 8.025115e-01 2.000000e-01 1.290104e+01
vertex 1.300000e+00 2.000000e-01 1.300000e+01
endloop
endfacet
facet normal -9.807853e-01 0.000000e+00 -1.950903e-01
outer loop
vertex 0.000000e+00 2.000000e-01 1.300000e+00
vertex 0.000000e+00 1.300000e+00 1.300000e+00
vertex 9.895661e-02 1.300000e+00 8.025115e-01
endloop
endfacet
facet normal -8.314696e-01 0.000000e+00 -5.555702e-01
outer loop
vertex 9.895661e-02 2.000000e-01 8.025115e-01
vertex 9.895661e-02 1.300000e+00 8.025115e-01
vertex 3.807612e-01 1.300000e+00 3.807612e-01
endloop
endfacet
facet normal -5.555702e-01 0.000000e+00 -8.314696e-01
outer loop
vertex 3.807612e-01 2.000000e-01 3.807612e-01
vertex 3.807612e-01 1.300000e+00 3.807612e-01
vertex 8.025115e-01 1.300000e+00 9.895661e-02
endloop
endfacet
facet normal -1.950903e-01 0.000000e+00 -9.807853e-01
outer loop
vertex 8.025115e-01 2.000000e-01 9.895661e-02
vertex 8.025115e-01 1.300000e+00 9.895661e-02
vertex 1.300000e+00 1.300000e+00 0.000000e+00
endloop
endfacet
facet normal -1.950903e-01 -0.000000e+00 -9.807853e-01
outer loop
vertex 1.300000e+00 1.300000e+00 0.000000e+00
vertex 1.300000e+00 2.000000e-01 0.000000e+00
vertex 8.025115e-01 2.000000e-01 9.895661e-02
endloop
endfacet
facet normal -5.555702e-01 -0.000000e+00 -8.314696e-01
outer loop
vertex 8.025115e-01 1.300000e+00 9.895661e-02
vertex 8.025115e-01 2.000000e-01 9.895661e-02
vertex 3.807612e-01 2.000000e-01 3.807612e-01
endloop
endfacet
facet normal -8.314696e-01 -0.000000e+00 -5.555702e-01
outer loop
vertex 3.807612e-01 1.300000e+00 3.807612e-01
vertex 3.807612e-01 2.000000e-01 3.807612e-01
vertex 9.895661e-02 2.000000e-01 8.025115e-01
endloop
endfacet
facet normal -9.807853e-01 -0.000000e+00 -1.950903e-01
outer loop
vertex 9.895661e-02 1.300000e+00 8.025115e-01
vertex 9.895661e-02 2.000000e-01 8.025115e-01
vertex 0.000000e+00 2.000000e-01 1.300000e+00
endloop
endfacet
facet normal 0.000000e+00 9.807853e-01 1.950903e-01
outer loop
vertex 1.870000e+01 1.500000e+00 1.280000e+01
vertex 1.300000e+00 1.500000e+00 1.280000e+01
vertex 1.300000e+00 1.484776e+00 1.287654e+01
endloop
endfacet
facet normal -6.375323e-17 8.314696e-01 5.555702e-01
outer loop
vertex 1.870000e+01 1.484776e+00 1.287654e+01
vertex 1.300000e+00 1.484776e+00 1.287654e+01
vertex 1.300000e+00 1.441421e+00 1.294142e+01
endloop
endfacet
facet normal 2.215542e-17 5.555702e-01 8.314696e-01
outer loop
vertex 1.870000e+01 1.441421e+00 1.294142e+01
vertex 1.300000e+00 1.441421e+00 1.294142e+01
vertex 1.300000e+00 1.376537e+00 1.298478e+01
endloop
endfacet
facet normal 5.834961e-18 1.950903e-01 9.807853e-01
outer loop
vertex 1.870000e+01 1.376537e+00 1.298478e+01
vertex 1.300000e+00 1.376537e+00 1.298478e+01
vertex 1.300000e+00 1.300000e+00 1.300000e+01
endloop
endfacet
facet normal -0.000000e+00 1.950903e-01 9.807853e-01
outer loop
vertex 1.300000e+00 1.300000e+00 1.300000e+01
vertex 1.870000e+01 1.300000e+00 1.300000e+01
vertex 1.870000e+01 1.376537e+00 1.298478e+01
endloop
endfacet
facet normal 1.661656e-17 5.555702e-01 8.314696e-01
outer loop
vertex 1.300000e+00 1.376537e+00 1.298478e+01
vertex 1.870000e+01 1.376537e+00 1.298478e+01
vertex 1.870000e+01 1.441421e+00 1.294142e+01
endloop
endfacet
facet normal 3.315793e-17 8.314696e-01 5.555702e-01
outer loop
vertex 1.300000e+00 1.441421e+00 1.294142e+01
vertex 1.870000e+01 1.441421e+00 1.294142e+01
vertex 1.870000e+01 1.484776e+00 1.287654e+01
endloop
endfacet
facet normal -1.785462e-18 9.807853e-01 1.950903e-01
outer loop
vertex 1.300000e+00 1.484776e+00 1.287654e+01
vertex 1.870000e+01 1.484776e+00 1.287654e+01
vertex 1.870000e+01 1.500000e+00 1.280000e+01
endloop
endfacet
facet normal 0.000000e+00 1.000000e+00 0.000000e+00
outer loop
vertex 1.300000e+00 1.500000e+00 1.280000e+01
vertex 2.000000e-01 1.500000e+00 1.170000e+01
vertex 2.837325e-01 1.500000e+00 1.212095e+01
endloop
endfacet
facet normal 0.000000e+00 1.000000e+00 0.000000e+00
outer loop
vertex 1.870000e+01 1.500000e+00 1.280000e+01
vertex 1.912095e+01 1.500000e+00 1.271627e+01
vertex 1.947782e+01 1.500000e+00 1.247782e+01
endloop
endfacet
facet normal 0.000000e+00 1.000000e+00 0.000000e+00
outer loop
vertex 2.837325e-01 1.500000e+00 1.212095e+01
vertex 5.221825e-01 1.500000e+00 1.247782e+01
vertex 1.300000e+00 1.500000e+00 1.280000e+01
endloop
endfacet
facet normal 0.000000e+00 1.000000e+00 0.000000e+00
outer loop
vertex 1.300000e+00 1.500000e+00 1.280000e+01
vertex 1.300000e+00 1.500000e+00 2.000000e-01
vertex 2.000000e-01 1.500000e+00 1.300000e+00
endloop
endfacet
facet normal 0.000000e+00 1.000000e+00 0.000000e+00
outer loop
vertex 2.000000e-01 1.500000e+00 1.300000e+00
vertex 8.790482e-01 1.500000e+00 2.837325e-01
vertex 5.221825e-01 1.500000e+00 5.221825e-01
endloop
endfacet
facet normal 0.000000e+00 1.000000e+00 0.000000e+00
outer loop
vertex 1.870000e+01 1.500000e+00 2.000000e-01
vertex 1.971627e+01 1.500000e+00 8.790482e-01
vertex 1.947782e+01 1.500000e+00 5.221825e-01
endloop
endfacet
facet normal 0.000000e+00 1.000000e+00 0.000000e+00
outer loop
vertex 1.870000e+01 1.500000e+00 2.000000e-01
vertex 1.870000e+01 1.500000e+00 1.280000e+01
vertex 1.980000e+01 1.500000e+00 1.170000e+01
endloop
endfacet
facet normal 0.000000e+00 1.000000e+00 0.000000e+00
outer loop
vertex 1.947782e+01 1.500000e+00 1.247782e+01
vertex 1.971627e+01 1.500000e+00 1.212095e+01
vertex 1.870000e+01 1.500000e+00 1.280000e+01
endloop
endfacet
facet normal 0.000000e+00 1.000000e+00 0.000000e+00
outer loop
vertex 2.000000e-01 1.500000e+00 1.300000e+00
vertex 2.000000e-01 1.500000e+00 1.170000e+01
vertex 1.300000e+00 1.500000e+00 1.280000e+01
endloop
endfacet
facet normal 0.000000e+00 1.000000e+00 0.000000e+00
outer loop
vertex 2.000000e-01 1.500000e+00 1.300000e+00
vertex 1.300000e+00 1.500000e+00 2.000000e-01
vertex 8.790482e-01 1.500000e+00 2.837325e-01
endloop
endfacet
facet normal 0.000000e+00 1.000000e+00 0.000000e+00
outer loop
vertex 1.870000e+01 1.500000e+00 2.000000e-01
vertex 1.980000e+01 1.500000e+00 1.300000e+00
vertex 1.971627e+01 1.500000e+00 8.790482e-01
endloop
endfacet
facet normal 0.000000e+00 1.000000e+00 0.000000e+00
outer loop
vertex 1.971627e+01 1.500000e+00 1.212095e+01
vertex 1.980000e+01 1.500000e+00 1.170000e+01
vertex 1.870000e+01 1.500000e+00 1.280000e+01
endloop
endfacet
facet normal 0.000000e+00 1.000000e+00 0.000000e+00
outer loop
vertex 1.870000e+01 1.500000e+00 2.000000e-01
vertex 1.300000e+00 1.500000e+00 2.000000e-01
vertex 1.300000e+00 1.500000e+00 1.280000e+01
endloop
endfacet
facet normal 0.000000e+00 1.000000e+00 0.000000e+00
outer loop
vertex 5.221825e-01 1.500000e+00 5.221825e-01
vertex 2.837325e-01 1.500000e+00 8.790482e-01
vertex 2.000000e-01 1.500000e+00 1.300000e+00
endloop
endfacet
facet normal 0.000000e+00 1.000000e+00 0.000000e+00
outer loop
vertex 1.980000e+01 1.500000e+00 1.170000e+01
vertex 1.980000e+01 1.500000e+00 1.300000e+00
vertex 1.870000e+01 1.500000e+00 2.000000e-01
endloop
endfacet
facet normal 0.000000e+00 1.000000e+00 0.000000e+00
outer loop
vertex 5.221825e-01 1.500000e+00 1.247782e+01
vertex 8.790482e-01 1.500000e+00 1.271627e+01
vertex 1.300000e+00 1.500000e+00 1.280000e+01
endloop
endfacet
facet normal -0.000000e+00 1.000000e+00 0.000000e+00
outer loop
vertex 1.300000e+00 1.500000e+00 1.280000e+01
vertex 1.870000e+01 1.500000e+00 1.280000e+01
vertex 1.870000e+01 1.500000e+00 2.000000e-01
endloop
endfacet
facet normal 0.000000e+00 1.000000e+00 0.000000e+00
outer loop
vertex 1.947782e+01 1.500000e+00 5.221825e-01
vertex 1.912095e+01 1.500000e+00 2.837325e-01
vertex 1.870000e+01 1.500000e+00 2.000000e-01
endloop
endfacet
facet normal 1.949436e-01 9.800476e-01 3.877669e-02
outer loop
vertex 1.987654e+01 1.484776e+00 1.170000e+01
vertex 1.980000e+01 1.500000e+00 1.170000e+01
vertex 1.971627e+01 1.500000e+00 1.212095e+01
endloop
endfacet
facet normal 1.652652e-01 9.800476e-01 1.104267e-01
outer loop
vertex 1.978698e+01 1.484776e+00 1.215024e+01
vertex 1.971627e+01 1.500000e+00 1.212095e+01
vertex 1.947782e+01 1.500000e+00 1.247782e+01
endloop
endfacet
facet normal 1.104267e-01 9.800476e-01 1.652652e-01
outer loop
vertex 1.953194e+01 1.484776e+00 1.253194e+01
vertex 1.947782e+01 1.500000e+00 1.247782e+01
vertex 1.912095e+01 1.500000e+00 1.271627e+01
endloop
endfacet
facet normal 3.877669e-02 9.800476e-01 1.949436e-01
outer loop
vertex 1.915024e+01 1.484776e+00 1.278698e+01
vertex 1.912095e+01 1.500000e+00 1.271627e+01
vertex 1.870000e+01 1.500000e+00 1.280000e+01
endloop
endfacet
facet normal 5.522086e-01 8.264385e-01 1.098411e-01
outer loop
vertex 1.994142e+01 1.441421e+00 1.170000e+01
vertex 1.987654e+01 1.484776e+00 1.170000e+01
vertex 1.978698e+01 1.484776e+00 1.215024e+01
endloop
endfacet
facet normal 4.681398e-01 8.264385e-01 3.128010e-01
outer loop
vertex 1.984692e+01 1.441421e+00 1.217507e+01
vertex 1.978698e+01 1.484776e+00 1.215024e+01
vertex 1.953194e+01 1.484776e+00 1.253194e+01
endloop
endfacet
facet normal 3.128010e-01 8.264385e-01 4.681398e-01
outer loop
vertex 1.957782e+01 1.441421e+00 1.257782e+01
vertex 1.953194e+01 1.484776e+00 1.253194e+01
vertex 1.915024e+01 1.484776e+00 1.278698e+01
endloop
endfacet
facet normal 1.098411e-01 8.264385e-01 5.522086e-01
outer loop
vertex 1.917507e+01 1.441421e+00 1.284692e+01
vertex 1.915024e+01 1.484776e+00 1.278698e+01
vertex 1.870000e+01 1.484776e+00 1.287654e+01
endloop
endfacet
facet normal 8.203258e-01 5.481242e-01 1.631730e-01
outer loop
vertex 1.998478e+01 1.376537e+00 1.170000e+01
vertex 1.994142e+01 1.441421e+00 1.170000e+01
vertex 1.984692e+01 1.441421e+00 1.217507e+01
endloop
endfacet
facet normal 6.954387e-01 5.481242e-01 4.646773e-01
outer loop
vertex 1.988698e+01 1.376537e+00 1.219166e+01
vertex 1.984692e+01 1.441421e+00 1.217507e+01
vertex 1.957782e+01 1.441421e+00 1.257782e+01
endloop
endfacet
facet normal 4.646773e-01 5.481242e-01 6.954387e-01
outer loop
vertex 1.960847e+01 1.376537e+00 1.260847e+01
vertex 1.957782e+01 1.441421e+00 1.257782e+01
vertex 1.917507e+01 1.441421e+00 1.284692e+01
endloop
endfacet
facet normal 1.631730e-01 5.481242e-01 8.203258e-01
outer loop
vertex 1.919166e+01 1.376537e+00 1.288698e+01
vertex 1.917507e+01 1.441421e+00 1.284692e+01
vertex 1.870000e+01 1.441421e+00 1.294142e+01
endloop
endfacet
facet normal 9.626372e-01 1.914805e-01 1.914805e-01
outer loop
vertex 2.000000e+01 1.300000e+00 1.170000e+01
vertex 1.998478e+01 1.376537e+00 1.170000e+01
vertex 1.988698e+01 1.376537e+00 1.219166e+01
endloop
endfacet
facet normal 8.160845e-01 1.914805e-01 5.452902e-01
outer loop
vertex 1.990104e+01 1.300000e+00 1.219749e+01
vertex 1.988698e+01 1.376537e+00 1.219166e+01
vertex 1.960847e+01 1.376537e+00 1.260847e+01
endloop
endfacet
facet normal 5.452902e-01 1.914805e-01 8.160845e-01
outer loop
vertex 1.961924e+01 1.300000e+00 1.261924e+01
vertex 1.960847e+01 1.376537e+00 1.260847e+01
vertex 1.919166e+01 1.376537e+00 1.288698e+01
endloop
endfacet
facet normal 1.914805e-01 1.914805e-01 9.626372e-01
outer loop
vertex 1.919749e+01 1.300000e+00 1.290104e+01
vertex 1.919166e+01 1.376537e+00 1.288698e+01
vertex 1.870000e+01 1.376537e+00 1.298478e+01
endloop
endfacet
facet normal 1.914805e-01 1.914805e-01 9.626372e-01
outer loop
vertex 1.870000e+01 1.376537e+00 1.298478e+01
vertex 1.870000e+01 1.300000e+00 1.300000e+01
vertex 1.919749e+01 1.300000e+00 1.290104e+01
endloop
endfacet
facet normal 5.452902e-01 1.914805e-01 8.160845e-01
outer loop
vertex 1.919166e+01 1.376537e+00 1.288698e+01
vertex 1.919749e+01 1.300000e+00 1.290104e+01
vertex 1.961924e+01 1.300000e+00 1.261924e+01
endloop
endfacet
facet normal 8.160845e-01 1.914805e-01 5.452902e-01
outer loop
vertex 1.960847e+01 1.376537e+00 1.260847e+01
vertex 1.961924e+01 1.300000e+00 1.261924e+01
vertex 1.990104e+01 1.300000e+00 1.219749e+01
endloop
endfacet
facet normal 9.626372e-01 1.914805e-01 1.914805e-01
outer loop
vertex 1.988698e+01 1.376537e+00 1.219166e+01
vertex 1.990104e+01 1.300000e+00 1.219749e+01
vertex 2.000000e+01 1.300000e+00 1.170000e+01
endloop
endfacet
facet normal 1.631730e-01 5.481242e-01 8.203258e-01
outer loop
vertex 1.870000e+01 1.441421e+00 1.294142e+01
vertex 1.870000e+01 1.376537e+00 1.298478e+01
vertex 1.919166e+01 1.376537e+00 1.288698e+01
endloop
endfacet
facet normal 4.646773e-01 5.481242e-01 6.954387e-01
outer loop
vertex 1.917507e+01 1.441421e+00 1.284692e+01
vertex 1.919166e+01 1.376537e+00 1.288698e+01
vertex 1.960847e+01 1.376537e+00 1.260847e+01
endloop
endfacet
facet normal 6.954387e-01 5.481242e-01 4.646773e-01
outer loop
vertex 1.957782e+01 1.441421e+00 1.257782e+01
vertex 1.960847e+01 1.376537e+00 1.260847e+01
vertex 1.988698e+01 1.376537e+00 1.219166e+01
endloop
endfacet
facet normal 8.203258e-01 5.481242e-01 1.631730e-01
outer loop
vertex 1.984692e+01 1.441421e+00 1.217507e+01
vertex 1.988698e+01 1.376537e+00 1.219166e+01
vertex 1.998478e+01 1.376537e+00 1.170000e+01
endloop
endfacet
facet normal 1.098411e-01 8.264385e-01 5.522086e-01
outer loop
vertex 1.870000e+01 1.484776e+00 1.287654e+01
vertex 1.870000e+01 1.441421e+00 1.294142e+01
vertex 1.917507e+01 1.441421e+00 1.284692e+01
endloop
endfacet
facet normal 3.128010e-01 8.264385e-01 4.681398e-01
outer loop
vertex 1.915024e+01 1.484776e+00 1.278698e+01
vertex 1.917507e+01 1.441421e+00 1.284692e+01
vertex 1.957782e+01 1.441421e+00 1.257782e+01
endloop
endfacet
facet normal 4.681398e-01 8.264385e-01 3.128010e-01
outer loop
vertex 1.953194e+01 1.484776e+00 1.253194e+01
vertex 1.957782e+01 1.441421e+00 1.257782e+01
vertex 1.984692e+01 1.441421e+00 1.217507e+01
endloop
endfacet
facet normal 5.522086e-01 8.264385e-01 1.098411e-01
outer loop
vertex 1.978698e+01 1.484776e+00 1.215024e+01
vertex 1.984692e+01 1.441421e+00 1.217507e+01
vertex 1.994142e+01 1.441421e+00 1.170000e+01
endloop
endfacet
facet normal 3.877669e-02 9.800476e-01 1.949436e-01
outer loop
vertex 1.870000e+01 1.500000e+00 1.280000e+01
vertex 1.870000e+01 1.484776e+00 1.287654e+01
vertex 1.915024e+01 1.484776e+00 1.278698e+01
endloop
endfacet
facet normal 1.104267e-01 9.800476e-01 1.652652e-01
outer loop
vertex 1.912095e+01 1.500000e+00 1.271627e+01
vertex 1.915024e+01 1.484776e+00 1.278698e+01
vertex 1.953194e+01 1.484776e+00 1.253194e+01
endloop
endfacet
facet normal 1.652652e-01 9.800476e-01 1.104267e-01
outer loop
vertex 1.947782e+01 1.500000e+00 1.247782e+01
vertex 1.953194e+01 1.484776e+00 1.253194e+01
vertex 1.978698e+01 1.484776e+00 1.215024e+01
endloop
endfacet
facet normal 1.949436e-01 9.800476e-01 3.877669e-02
outer loop
vertex 1.971627e+01 1.500000e+00 1.212095e+01
vertex 1.978698e+01 1.484776e+00 1.215024e+01
vertex 1.987654e+01 1.484776e+00 1.170000e+01
endloop
endfacet
facet normal -3.877669e-02 9.800476e-01 1.949436e-01
outer loop
vertex 1.300000e+00 1.484776e+00 1.287654e+01
vertex 1.300000e+00 1.500000e+00 1.280000e+01
vertex 8.790482e-01 1.500000e+00 1.271627e+01
endloop
endfacet
facet normal -1.104267e-01 9.800476e-01 1.652652e-01
outer loop
vertex 8.497589e-01 1.484776e+00 1.278698e+01
vertex 8.790482e-01 1.500000e+00 1.271627e+01
vertex 5.221825e-01 1.500000e+00 1.247782e+01
endloop
endfacet
facet normal -1.652652e-01 9.800476e-01 1.104267e-01
outer loop
vertex 4.680629e-01 1.484776e+00 1.253194e+01
vertex 5.221825e-01 1.500000e+00 1.247782e+01
vertex 2.837325e-01 1.500000e+00 1.212095e+01
endloop
endfacet
facet normal -1.949436e-01 9.800476e-01 3.877669e-02
outer loop
vertex 2.130218e-01 1.484776e+00 1.215024e+01
vertex 2.837325e-01 1.500000e+00 1.212095e+01
vertex 2.000000e-01 1.500000e+00 1.170000e+01
endloop
endfacet
facet normal -1.098411e-01 8.264385e-01 5.522086e-01
outer loop
vertex 1.300000e+00 1.441421e+00 1.294142e+01
vertex 1.300000e+00 1.484776e+00 1.287654e+01
vertex 8.497589e-01 1.484776e+00 1.278698e+01
endloop
endfacet
facet normal -3.128010e-01 8.264385e-01 4.681398e-01
outer loop
vertex 8.249286e-01 1.441421e+00 1.284692e+01
vertex 8.497589e-01 1.484776e+00 1.278698e+01
vertex 4.680629e-01 1.484776e+00 1.253194e+01
endloop
endfacet
facet normal -4.681398e-01 8.264385e-01 3.128010e-01
outer loop
vertex 4.221825e-01 1.441421e+00 1.257782e+01
vertex 4.680629e-01 1.484776e+00 1.253194e+01
vertex 2.130218e-01 1.484776e+00 1.215024e+01
endloop
endfacet
facet normal -5.522086e-01 8.264385e-01 1.098411e-01
outer loop
vertex 1.530762e-01 1.441421e+00 1.217507e+01
vertex 2.130218e-01 1.484776e+00 1.215024e+01
vertex 1.234633e-01 1.484776e+00 1.170000e+01
endloop
endfacet
facet normal -1.631730e-01 5.481242e-01 8.203258e-01
outer loop
vertex 1.300000e+00 1.376537e+00 1.298478e+01
vertex 1.300000e+00 1.441421e+00 1.294142e+01
vertex 8.249286e-01 1.441421e+00 1.284692e+01
endloop
endfacet
facet normal -4.646773e-01 5.481242e-01 6.954387e-01
outer loop
vertex 8.083375e-01 1.376537e+00 1.288698e+01
vertex 8.249286e-01 1.441421e+00 1.284692e+01
vertex 4.221825e-01 1.441421e+00 1.257782e+01
endloop
endfacet
facet normal -6.954387e-01 5.481242e-01 4.646773e-01
outer loop
vertex 3.915262e-01 1.376537e+00 1.260847e+01
vertex 4.221825e-01 1.441421e+00 1.257782e+01
vertex 1.530762e-01 1.441421e+00 1.217507e+01
endloop
endfacet
facet normal -8.203258e-01 5.481242e-01 1.631730e-01
outer loop
vertex 1.130218e-01 1.376537e+00 1.219166e+01
vertex 1.530762e-01 1.441421e+00 1.217507e+01
vertex 5.857864e-02 1.441421e+00 1.170000e+01
endloop
endfacet
facet normal -1.914805e-01 1.914805e-01 9.626372e-01
outer loop
vertex 1.300000e+00 1.300000e+00 1.300000e+01
vertex 1.300000e+00 1.376537e+00 1.298478e+01
vertex 8.083375e-01 1.376537e+00 1.288698e+01
endloop
endfacet
facet normal -5.452902e-01 1.914805e-01 8.160845e-01
outer loop
vertex 8.025115e-01 1.300000e+00 1.290104e+01
vertex 8.083375e-01 1.376537e+00 1.288698e+01
vertex 3.915262e-01 1.376537e+00 1.260847e+01
endloop
endfacet
facet normal -8.160845e-01 1.914805e-01 5.452902e-01
outer loop
vertex 3.807612e-01 1.300000e+00 1.261924e+01
vertex 3.915262e-01 1.376537e+00 1.260847e+01
vertex 1.130218e-01 1.376537e+00 1.219166e+01
endloop
endfacet
facet normal -9.626372e-01 1.914805e-01 1.914805e-01
outer loop
vertex 9.895661e-02 1.300000e+00 1.219749e+01
vertex 1.130218e-01 1.376537e+00 1.219166e+01
vertex 1.522409e-02 1.376537e+00 1.170000e+01
endloop
endfacet
facet normal -9.626372e-01 1.914805e-01 1.914805e-01
outer loop
vertex 1.522409e-02 1.376537e+00 1.170000e+01
vertex 0.000000e+00 1.300000e+00 1.170000e+01
vertex 9.895661e-02 1.300000e+00 1.219749e+01
endloop
endfacet
facet normal -8.160845e-01 1.914805e-01 5.452902e-01
outer loop
vertex 1.130218e-01 1.376537e+00 1.219166e+01
vertex 9.895661e-02 1.300000e+00 1.219749e+01
vertex 3.807612e-01 1.300000e+00 1.261924e+01
endloop
endfacet
facet normal -5.452902e-01 1.914805e-01 8.160845e-01
outer loop
vertex 3.915262e-01 1.376537e+00 1.260847e+01
vertex 3.807612e-01 1.300000e+00 1.261924e+01
vertex 8.025115e-01 1.300000e+00 1.290104e+01
endloop
endfacet
facet normal -1.914805e-01 1.914805e-01 9.626372e-01
outer loop
vertex 8.083375e-01 1.376537e+00 1.288698e+01
vertex 8.025115e-01 1.300000e+00 1.290104e+01
vertex 1.300000e+00 1.300000e+00 1.300000e+01
endloop
endfacet
facet normal -8.203258e-01 5.481242e-01 1.631730e-01
outer loop
vertex 5.857864e-02 1.441421e+00 1.170000e+01
vertex 1.522409e-02 1.376537e+00 1.170000e+01
vertex 1.130218e-01 1.376537e+00 1.219166e+01
endloop
endfacet
facet normal -6.954387e-01 5.481242e-01 4.646773e-01
outer loop
vertex 1.530762e-01 1.441421e+00 1.217507e+01
vertex 1.130218e-01 1.376537e+00 1.219166e+01
vertex 3.915262e-01 1.376537e+00 1.260847e+01
endloop
endfacet
facet normal -4.646773e-01 5.481242e-01 6.954387e-01
outer loop
vertex 4.221825e-01 1.441421e+00 1.257782e+01
vertex 3.915262e-01 1.376537e+00 1.260847e+01
vertex 8.083375e-01 1.376537e+00 1.288698e+01
endloop
endfacet
facet normal -1.631730e-01 5.481242e-01 8.203258e-01
outer loop
vertex 8.249286e-01 1.441421e+00 1.284692e+01
vertex 8.083375e-01 1.376537e+00 1.288698e+01
vertex 1.300000e+00 1.376537e+00 1.298478e+01
endloop
endfacet
facet normal -5.522086e-01 8.264385e-01 1.098411e-01
outer loop
vertex 1.234633e-01 1.484776e+00 1.170000e+01
vertex 5.857864e-02 1.441421e+00 1.170000e+01
vertex 1.530762e-01 1.441421e+00 1.217507e+01
endloop
endfacet
facet normal -4.681398e-01 8.264385e-01 3.128010e-01
outer loop
vertex 2.130218e-01 1.484776e+00 1.215024e+01
vertex 1.530762e-01 1.441421e+00 1.217507e+01
vertex 4.221825e-01 1.441421e+00 1.257782e+01
endloop
endfacet
facet normal -3.128010e-01 8.264385e-01 4.681398e-01
outer loop
vertex 4.680629e-01 1.484776e+00 1.253194e+01
vertex 4.221825e-01 1.441421e+00 1.257782e+01
vertex 8.249286e-01 1.441421e+00 1.284692e+01
endloop
endfacet
facet normal -1.098411e-01 8.264385e-01 5.522086e-01
outer loop
vertex 8.497589e-01 1.484776e+00 1.278698e+01
vertex 8.249286e-01 1.441421e+00 1.284692e+01
vertex 1.300000e+00 1.441421e+00 1.294142e+01
endloop
endfacet
facet normal -1.949436e-01 9.800476e-01 3.877669e-02
outer loop
vertex 2.000000e-01 1.500000e+00 1.170000e+01
vertex 1.234633e-01 1.484776e+00 1.170000e+01
vertex 2.130218e-01 1.484776e+00 1.215024e+01
endloop
endfacet
facet normal -1.652652e-01 9.800476e-01 1.104267e-01
outer loop
vertex 2.837325e-01 1.500000e+00 1.212095e+01
vertex 2.130218e-01 1.484776e+00 1.215024e+01
vertex 4.680629e-01 1.484776e+00 1.253194e+01
endloop
endfacet
facet normal -1.104267e-01 9.800476e-01 1.652652e-01
outer loop
vertex 5.221825e-01 1.500000e+00 1.247782e+01
vertex 4.680629e-01 1.484776e+00 1.253194e+01
vertex 8.497589e-01 1.484776e+00 1.278698e+01
endloop
endfacet
facet normal -3.877669e-02 9.800476e-01 1.949436e-01
outer loop
vertex 8.790482e-01 1.500000e+00 1.271627e+01
vertex 8.497589e-01 1.484776e+00 1.278698e+01
vertex 1.300000e+00 1.484776e+00 1.287654e+01
endloop
endfacet
facet normal 1.950903e-01 9.807853e-01 -0.000000e+00
outer loop
vertex 1.980000e+01 1.500000e+00 1.300000e+00
vertex 1.980000e+01 1.500000e+00 1.170000e+01
vertex 1.987654e+01 1.484776e+00 1.170000e+01
endloop
endfacet
facet normal 5.555702e-01 8.314696e-01 -1.386894e-17
outer loop
vertex 1.987654e+01 1.484776e+00 1.300000e+00
vertex 1.987654e+01 1.484776e+00 1.170000e+01
vertex 1.994142e+01 1.441421e+00 1.170000e+01
endloop
endfacet
facet normal 8.314696e-01 5.555702e-01 9.266930e-18
outer loop
vertex 1.994142e+01 1.441421e+00 1.300000e+00
vertex 1.994142e+01 1.441421e+00 1.170000e+01
vertex 1.998478e+01 1.376537e+00 1.170000e+01
endloop
endfacet
facet normal 9.807853e-01 1.950903e-01 6.508226e-18
outer loop
vertex 1.998478e+01 1.376537e+00 1.300000e+00
vertex 1.998478e+01 1.376537e+00 1.170000e+01
vertex 2.000000e+01 1.300000e+00 1.170000e+01
endloop
endfacet
facet normal 9.807853e-01 1.950903e-01 0.000000e+00
outer loop
vertex 2.000000e+01 1.300000e+00 1.170000e+01
vertex 2.000000e+01 1.300000e+00 1.300000e+00
vertex 1.998478e+01 1.376537e+00 1.300000e+00
endloop
endfacet
facet normal 8.314696e-01 5.555702e-01 1.853386e-17
outer loop
vertex 1.998478e+01 1.376537e+00 1.170000e+01
vertex 1.998478e+01 1.376537e+00 1.300000e+00
vertex 1.994142e+01 1.441421e+00 1.300000e+00
endloop
endfacet
facet normal 5.555702e-01 8.314696e-01 1.386894e-17
outer loop
vertex 1.994142e+01 1.441421e+00 1.170000e+01
vertex 1.994142e+01 1.441421e+00 1.300000e+00
vertex 1.987654e+01 1.484776e+00 1.300000e+00
endloop
endfacet
facet normal 1.950903e-01 9.807853e-01 -1.635953e-17
outer loop
vertex 1.987654e+01 1.484776e+00 1.170000e+01
vertex 1.987654e+01 1.484776e+00 1.300000e+00
vertex 1.980000e+01 1.500000e+00 1.300000e+00
endloop
endfacet
facet normal -1.950903e-01 9.807853e-01 0.000000e+00
outer loop
vertex 2.000000e-01 1.500000e+00 1.170000e+01
vertex 2.000000e-01 1.500000e+00 1.300000e+00
vertex 1.234633e-01 1.484776e+00 1.300000e+00
endloop
endfacet
facet normal -5.555702e-01 8.314696e-01 9.392747e-18
outer loop
vertex 1.234633e-01 1.484776e+00 1.170000e+01
vertex 1.234633e-01 1.484776e+00 1.300000e+00
vertex 5.857864e-02 1.441421e+00 1.300000e+00
endloop
endfacet
facet normal -8.314696e-01 5.555702e-01 -1.393185e-17
outer loop
vertex 5.857864e-02 1.441421e+00 1.170000e+01
vertex 5.857864e-02 1.441421e+00 1.300000e+00
vertex 1.522409e-02 1.376537e+00 1.300000e+00
endloop
endfacet
facet normal -9.807853e-01 1.950903e-01 -3.597318e-17
outer loop
vertex 1.522409e-02 1.376537e+00 1.170000e+01
vertex 1.522409e-02 1.376537e+00 1.300000e+00
vertex 0.000000e+00 1.300000e+00 1.300000e+00
endloop
endfacet
facet normal -9.807853e-01 1.950903e-01 0.000000e+00
outer loop
vertex 0.000000e+00 1.300000e+00 1.300000e+00
vertex 0.000000e+00 1.300000e+00 1.170000e+01
vertex 1.522409e-02 1.376537e+00 1.170000e+01
endloop
endfacet
facet normal -8.314696e-01 5.555702e-01 -3.700481e-17
outer loop
vertex 1.522409e-02 1.376537e+00 1.300000e+00
vertex 1.522409e-02 1.376537e+00 1.170000e+01
vertex 5.857864e-02 1.441421e+00 1.170000e+01
endloop
endfacet
facet normal -5.555702e-01 8.314696e-01 -3.233989e-17
outer loop
vertex 5.857864e-02 1.441421e+00 1.300000e+00
vertex 5.857864e-02 1.441421e+00 1.170000e+01
vertex 1.234633e-01 1.484776e+00 1.170000e+01
endloop
endfacet
facet normal -1.950903e-01 9.807853e-01 -4.265933e-17
outer loop
vertex 1.234633e-01 1.484776e+00 1.300000e+00
vertex 1.234633e-01 1.484776e+00 1.170000e+01
vertex 2.000000e-01 1.500000e+00 1.170000e+01
endloop
endfacet
facet normal 3.877669e-02 9.800476e-01 -1.949436e-01
outer loop
vertex 1.870000e+01 1.484776e+00 1.234633e-01
vertex 1.870000e+01 1.500000e+00 2.000000e-01
vertex 1.912095e+01 1.500000e+00 2.837325e-01
endloop
endfacet
facet normal 1.104267e-01 9.800476e-01 -1.652652e-01
outer loop
vertex 1.915024e+01 1.484776e+00 2.130218e-01
vertex 1.912095e+01 1.500000e+00 2.837325e-01
vertex 1.947782e+01 1.500000e+00 5.221825e-01
endloop
endfacet
facet normal 1.652652e-01 9.800476e-01 -1.104267e-01
outer loop
vertex 1.953194e+01 1.484776e+00 4.680629e-01
vertex 1.947782e+01 1.500000e+00 5.221825e-01
vertex 1.971627e+01 1.500000e+00 8.790482e-01
endloop
endfacet
facet normal 1.949436e-01 9.800476e-01 -3.877669e-02
outer loop
vertex 1.978698e+01 1.484776e+00 8.497589e-01
vertex 1.971627e+01 1.500000e+00 8.790482e-01
vertex 1.980000e+01 1.500000e+00 1.300000e+00
endloop
endfacet
facet normal 1.098411e-01 8.264385e-01 -5.522086e-01
outer loop
vertex 1.870000e+01 1.441421e+00 5.857864e-02
vertex 1.870000e+01 1.484776e+00 1.234633e-01
vertex 1.915024e+01 1.484776e+00 2.130218e-01
endloop
endfacet
facet normal 3.128010e-01 8.264385e-01 -4.681398e-01
outer loop
vertex 1.917507e+01 1.441421e+00 1.530762e-01
vertex 1.915024e+01 1.484776e+00 2.130218e-01
vertex 1.953194e+01 1.484776e+00 4.680629e-01
endloop
endfacet
facet normal 4.681398e-01 8.264385e-01 -3.128010e-01
outer loop
vertex 1.957782e+01 1.441421e+00 4.221825e-01
vertex 1.953194e+01 1.484776e+00 4.680629e-01
vertex 1.978698e+01 1.484776e+00 8.497589e-01
endloop
endfacet
facet normal 5.522086e-01 8.264385e-01 -1.098411e-01
outer loop
vertex 1.984692e+01 1.441421e+00 8.249286e-01
vertex 1.978698e+01 1.484776e+00 8.497589e-01
vertex 1.987654e+01 1.484776e+00 1.300000e+00
endloop
endfacet
facet normal 1.631730e-01 5.481242e-01 -8.203258e-01
outer loop
vertex 1.870000e+01 1.376537e+00 1.522409e-02
vertex 1.870000e+01 1.441421e+00 5.857864e-02
vertex 1.917507e+01 1.441421e+00 1.530762e-01
endloop
endfacet
facet normal 4.646773e-01 5.481242e-01 -6.954387e-01
outer loop
vertex 1.919166e+01 1.376537e+00 1.130218e-01
vertex 1.917507e+01 1.441421e+00 1.530762e-01
vertex 1.957782e+01 1.441421e+00 4.221825e-01
endloop
endfacet
facet normal 6.954387e-01 5.481242e-01 -4.646773e-01
outer loop
vertex 1.960847e+01 1.376537e+00 3.915262e-01
vertex 1.957782e+01 1.441421e+00 4.221825e-01
vertex 1.984692e+01 1.441421e+00 8.249286e-01
endloop
endfacet
facet normal 8.203258e-01 5.481242e-01 -1.631730e-01
outer loop
vertex 1.988698e+01 1.376537e+00 8.083375e-01
vertex 1.984692e+01 1.441421e+00 8.249286e-01
vertex 1.994142e+01 1.441421e+00 1.300000e+00
endloop
endfacet
facet normal 1.914805e-01 1.914805e-01 -9.626372e-01
outer loop
vertex 1.870000e+01 1.300000e+00 0.000000e+00
vertex 1.870000e+01 1.376537e+00 1.522409e-02
vertex 1.919166e+01 1.376537e+00 1.130218e-01
endloop
endfacet
facet normal 5.452902e-01 1.914805e-01 -8.160845e-01
outer loop
vertex 1.919749e+01 1.300000e+00 9.895661e-02
vertex 1.919166e+01 1.376537e+00 1.130218e-01
vertex 1.960847e+01 1.376537e+00 3.915262e-01
endloop
endfacet
facet normal 8.160845e-01 1.914805e-01 -5.452902e-01
outer loop
vertex 1.961924e+01 1.300000e+00 3.807612e-01
vertex 1.960847e+01 1.376537e+00 3.915262e-01
vertex 1.988698e+01 1.376537e+00 8.083375e-01
endloop
endfacet
facet normal 9.626372e-01 1.914805e-01 -1.914805e-01
outer loop
vertex 1.990104e+01 1.300000e+00 8.025115e-01
vertex 1.988698e+01 1.376537e+00 8.083375e-01
vertex 1.998478e+01 1.376537e+00 1.300000e+00
endloop
endfacet
facet normal 9.626372e-01 1.914805e-01 -1.914805e-01
outer loop
vertex 1.998478e+01 1.376537e+00 1.300000e+00
vertex 2.000000e+01 1.300000e+00 1.300000e+00
vertex 1.990104e+01 1.300000e+00 8.025115e-01
endloop
endfacet
facet normal 8.160845e-01 1.914805e-01 -5.452902e-01
outer loop
vertex 1.988698e+01 1.376537e+00 8.083375e-01
vertex 1.990104e+01 1.300000e+00 8.025115e-01
vertex 1.961924e+01 1.300000e+00 3.807612e-01
endloop
endfacet
facet normal 5.452902e-01 1.914805e-01 -8.160845e-01
outer loop
vertex 1.960847e+01 1.376537e+00 3.915262e-01
vertex 1.961924e+01 1.300000e+00 3.807612e-01
vertex 1.919749e+01 1.300000e+00 9.895661e-02
endloop
endfacet
facet normal 1.914805e-01 1.914805e-01 -9.626372e-01
outer loop
vertex 1.919166e+01 1.376537e+00 1.130218e-01
vertex 1.919749e+01 1.300000e+00 9.895661e-02
vertex 1.870000e+01 1.300000e+00 0.000000e+00
endloop
endfacet
facet normal 8.203258e-01 5.481242e-01 -1.631730e-01
outer loop
vertex 1.994142e+01 1.441421e+00 1.300000e+00
vertex 1.998478e+01 1.376537e+00 1.300000e+00
vertex 1.988698e+01 1.376537e+00 8.083375e-01
endloop
endfacet
facet normal 6.954387e-01 5.481242e-01 -4.646773e-01
outer loop
vertex 1.984692e+01 1.441421e+00 8.249286e-01
vertex 1.988698e+01 1.376537e+00 8.083375e-01
vertex 1.960847e+01 1.376537e+00 3.915262e-01
endloop
endfacet
facet normal 4.646773e-01 5.481242e-01 -6.954387e-01
outer loop
vertex 1.957782e+01 1.441421e+00 4.221825e-01
vertex 1.960847e+01 1.376537e+00 3.915262e-01
vertex 1.919166e+01 1.376537e+00 1.130218e-01
endloop
endfacet
facet normal 1.631730e-01 5.481242e-01 -8.203258e-01
outer loop
vertex 1.917507e+01 1.441421e+00 1.530762e-01
vertex 1.919166e+01 1.376537e+00 1.130218e-01
vertex 1.870000e+01 1.376537e+00 1.522409e-02
endloop
endfacet
facet normal 5.522086e-01 8.264385e-01 -1.098411e-01
outer loop
vertex 1.987654e+01 1.484776e+00 1.300000e+00
vertex 1.994142e+01 1.441421e+00 1.300000e+00
vertex 1.984692e+01 1.441421e+00 8.249286e-01
endloop
endfacet
facet normal 4.681398e-01 8.264385e-01 -3.128010e-01
outer loop
vertex 1.978698e+01 1.484776e+00 8.497589e-01
vertex 1.984692e+01 1.441421e+00 8.249286e-01
vertex 1.957782e+01 1.441421e+00 4.221825e-01
endloop
endfacet
facet normal 3.128010e-01 8.264385e-01 -4.681398e-01
outer loop
vertex 1.953194e+01 1.484776e+00 4.680629e-01
vertex 1.957782e+01 1.441421e+00 4.221825e-01
vertex 1.917507e+01 1.441421e+00 1.530762e-01
endloop
endfacet
facet normal 1.098411e-01 8.264385e-01 -5.522086e-01
outer loop
vertex 1.915024e+01 1.484776e+00 2.130218e-01
vertex 1.917507e+01 1.441421e+00 1.530762e-01
vertex 1.870000e+01 1.441421e+00 5.857864e-02
endloop
endfacet
facet normal 1.949436e-01 9.800476e-01 -3.877669e-02
outer loop
vertex 1.980000e+01 1.500000e+00 1.300000e+00
vertex 1.987654e+01 1.484776e+00 1.300000e+00
vertex 1.978698e+01 1.484776e+00 8.497589e-01
endloop
endfacet
facet normal 1.652652e-01 9.800476e-01 -1.104267e-01
outer loop
vertex 1.971627e+01 1.500000e+00 8.790482e-01
vertex 1.978698e+01 1.484776e+00 8.497589e-01
vertex 1.953194e+01 1.484776e+00 4.680629e-01
endloop
endfacet
facet normal 1.104267e-01 9.800476e-01 -1.652652e-01
outer loop
vertex 1.947782e+01 1.500000e+00 5.221825e-01
vertex 1.953194e+01 1.484776e+00 4.680629e-01
vertex 1.915024e+01 1.484776e+00 2.130218e-01
endloop
endfacet
facet normal 3.877669e-02 9.800476e-01 -1.949436e-01
outer loop
vertex 1.912095e+01 1.500000e+00 2.837325e-01
vertex 1.915024e+01 1.484776e+00 2.130218e-01
vertex 1.870000e+01 1.484776e+00 1.234633e-01
endloop
endfacet
facet normal -1.949436e-01 9.800476e-01 -3.877669e-02
outer loop
vertex 1.234633e-01 1.484776e+00 1.300000e+00
vertex 2.000000e-01 1.500000e+00 1.300000e+00
vertex 2.837325e-01 1.500000e+00 8.790482e-01
endloop
endfacet
facet normal -1.652652e-01 9.800476e-01 -1.104267e-01
outer loop
vertex 2.130218e-01 1.484776e+00 8.497589e-01
vertex 2.837325e-01 1.500000e+00 8.790482e-01
vertex 5.221825e-01 1.500000e+00 5.221825e-01
endloop
endfacet
facet normal -1.104267e-01 9.800476e-01 -1.652652e-01
outer loop
vertex 4.680629e-01 1.484776e+00 4.680629e-01
vertex 5.221825e-01 1.500000e+00 5.221825e-01
vertex 8.790482e-01 1.500000e+00 2.837325e-01
endloop
endfacet
facet normal -3.877669e-02 9.800476e-01 -1.949436e-01
outer loop
vertex 8.497589e-01 1.484776e+00 2.130218e-01
vertex 8.790482e-01 1.500000e+00 2.837325e-01
vertex 1.300000e+00 1.500000e+00 2.000000e-01
endloop
endfacet
facet normal -5.522086e-01 8.264385e-01 -1.098411e-01
outer loop
vertex 5.857864e-02 1.441421e+00 1.300000e+00
vertex 1.234633e-01 1.484776e+00 1.300000e+00
vertex 2.130218e-01 1.484776e+00 8.497589e-01
endloop
endfacet
facet normal -4.681398e-01 8.264385e-01 -3.128010e-01
outer loop
vertex 1.530762e-01 1.441421e+00 8.249286e-01
vertex 2.130218e-01 1.484776e+00 8.497589e-01
vertex 4.680629e-01 1.484776e+00 4.680629e-01
endloop
endfacet
facet normal -3.128010e-01 8.264385e-01 -4.681398e-01
outer loop
vertex 4.221825e-01 1.441421e+00 4.221825e-01
vertex 4.680629e-01 1.484776e+00 4.680629e-01
vertex 8.497589e-01 1.484776e+00 2.130218e-01
endloop
endfacet
facet normal -1.098411e-01 8.264385e-01 -5.522086e-01
outer loop
vertex 8.249286e-01 1.441421e+00 1.530762e-01
vertex 8.497589e-01 1.484776e+00 2.130218e-01
vertex 1.300000e+00 1.484776e+00 1.234633e-01
endloop
endfacet
facet normal -8.203258e-01 5.481242e-01 -1.631730e-01
outer loop
vertex 1.522409e-02 1.376537e+00 1.300000e+00
vertex 5.857864e-02 1.441421e+00 1.300000e+00
vertex 1.530762e-01 1.441421e+00 8.249286e-01
endloop
endfacet
facet normal -6.954387e-01 5.481242e-01 -4.646773e-01
outer loop
vertex 1.130218e-01 1.376537e+00 8.083375e-01
vertex 1.530762e-01 1.441421e+00 8.249286e-01
vertex 4.221825e-01 1.441421e+00 4.221825e-01
endloop
endfacet
facet normal -4.646773e-01 5.481242e-01 -6.954387e-01
outer loop
vertex 3.915262e-01 1.376537e+00 3.915262e-01
vertex 4.221825e-01 1.441421e+00 4.221825e-01
vertex 8.249286e-01 1.441421e+00 1.530762e-01
endloop
endfacet
facet normal -1.631730e-01 5.481242e-01 -8.203258e-01
outer loop
vertex 8.083375e-01 1.376537e+00 1.130218e-01
vertex 8.249286e-01 1.441421e+00 1.530762e-01
vertex 1.300000e+00 1.441421e+00 5.857864e-02
endloop
endfacet
facet normal -9.626372e-01 1.914805e-01 -1.914805e-01
outer loop
vertex 0.000000e+00 1.300000e+00 1.300000e+00
vertex 1.522409e-02 1.376537e+00 1.300000e+00
vertex 1.130218e-01 1.376537e+00 8.083375e-01
endloop
endfacet
facet normal -8.160845e-01 1.914805e-01 -5.452902e-01
outer loop
vertex 9.895661e-02 1.300000e+00 8.025115e-01
vertex 1.130218e-01 1.376537e+00 8.083375e-01
vertex 3.915262e-01 1.376537e+00 3.915262e-01
endloop
endfacet
facet normal -5.452902e-01 1.914805e-01 -8.160845e-01
outer loop
vertex 3.807612e-01 1.300000e+00 3.807612e-01
vertex 3.915262e-01 1.376537e+00 3.915262e-01
vertex 8.083375e-01 1.376537e+00 1.130218e-01
endloop
endfacet
facet normal -1.914805e-01 1.914805e-01 -9.626372e-01
outer loop
vertex 8.025115e-01 1.300000e+00 9.895661e-02
vertex 8.083375e-01 1.376537e+00 1.130218e-01
vertex 1.300000e+00 1.376537e+00 1.522409e-02
endloop
endfacet
facet normal -1.914805e-01 1.914805e-01 -9.626372e-01
outer loop
vertex 1.300000e+00 1.376537e+00 1.522409e-02
vertex 1.300000e+00 1.300000e+00 0.000000e+00
vertex 8.025115e-01 1.300000e+00 9.895661e-02
endloop
endfacet
facet normal -5.452902e-01 1.914805e-01 -8.160845e-01
outer loop
vertex 8.083375e-01 1.376537e+00 1.130218e-01
vertex 8.025115e-01 1.300000e+00 9.895661e-02
vertex 3.807612e-01 1.300000e+00 3.807612e-01
endloop
endfacet
facet normal -8.160845e-01 1.914805e-01 -5.452902e-01
outer loop
vertex 3.915262e-01 1.376537e+00 3.915262e-01
vertex 3.807612e-01 1.300000e+00 3.807612e-01
vertex 9.895661e-02 1.300000e+00 8.025115e-01
endloop
endfacet
facet normal -9.626372e-01 1.914805e-01 -1.914805e-01
outer loop
vertex 1.130218e-01 1.376537e+00 8.083375e-01
vertex 9.895661e-02 1.300000e+00 8.025115e-01
vertex 0.000000e+00 1.300000e+00 1.300000e+00
endloop
endfacet
facet normal -1.631730e-01 5.481242e-01 -8.203258e-01
outer loop
vertex 1.300000e+00 1.441421e+00 5.857864e-02
vertex 1.300000e+00 1.376537e+00 1.522409e-02
vertex 8.083375e-01 1.376537e+00 1.130218e-01
endloop
endfacet
facet normal -4.646773e-01 5.481242e-01 -6.954387e-01
outer loop
vertex 8.249286e-01 1.441421e+00 1.530762e-01
vertex 8.083375e-01 1.376537e+00 1.130218e-01
vertex 3.915262e-01 1.376537e+00 3.915262e-01
endloop
endfacet
facet normal -6.954387e-01 5.481242e-01 -4.646773e-01
outer loop
vertex 4.221825e-01 1.441421e+00 4.221825e-01
vertex 3.915262e-01 1.376537e+00 3.915262e-01
vertex 1.130218e-01 1.376537e+00 8.083375e-01
endloop
endfacet
facet normal -8.203258e-01 5.481242e-01 -1.631730e-01
outer loop
vertex 1.530762e-01 1.441421e+00 8.249286e-01
vertex 1.130218e-01 1.376537e+00 8.083375e-01
vertex 1.522409e-02 1.376537e+00 1.300000e+00
endloop
endfacet
facet normal -1.098411e-01 8.264385e-01 -5.522086e-01
outer loop
vertex 1.300000e+00 1.484776e+00 1.234633e-01
vertex 1.300000e+00 1.441421e+00 5.857864e-02
vertex 8.249286e-01 1.441421e+00 1.530762e-01
endloop
endfacet
facet normal -3.128010e-01 8.264385e-01 -4.681398e-01
outer loop
vertex 8.497589e-01 1.484776e+00 2.130218e-01
vertex 8.249286e-01 1.441421e+00 1.530762e-01
vertex 4.221825e-01 1.441421e+00 4.221825e-01
endloop
endfacet
facet normal -4.681398e-01 8.264385e-01 -3.128010e-01
outer loop
vertex 4.680629e-01 1.484776e+00 4.680629e-01
vertex 4.221825e-01 1.441421e+00 4.221825e-01
vertex 1.530762e-01 1.441421e+00 8.249286e-01
endloop
endfacet
facet normal -5.522086e-01 8.264385e-01 -1.098411e-01
outer loop
vertex 2.130218e-01 1.484776e+00 8.497589e-01
vertex 1.530762e-01 1.441421e+00 8.249286e-01
vertex 5.857864e-02 1.441421e+00 1.300000e+00
endloop
endfacet
facet normal -3.877669e-02 9.800476e-01 -1.949436e-01
outer loop
vertex 1.300000e+00 1.500000e+00 2.000000e-01
vertex 1.300000e+00 1.484776e+00 1.234633e-01
vertex 8.497589e-01 1.484776e+00 2.130218e-01
endloop
endfacet
facet normal -1.104267e-01 9.800476e-01 -1.652652e-01
outer loop
vertex 8.790482e-01 1.500000e+00 2.837325e-01
vertex 8.497589e-01 1.484776e+00 2.130218e-01
vertex 4.680629e-01 1.484776e+00 4.680629e-01
endloop
endfacet
facet normal -1.652652e-01 9.800476e-01 -1.104267e-01
outer loop
vertex 5.221825e-01 1.500000e+00 5.221825e-01
vertex 4.680629e-01 1.484776e+00 4.680629e-01
vertex 2.130218e-01 1.484776e+00 8.497589e-01
endloop
endfacet
facet normal -1.949436e-01 9.800476e-01 -3.877669e-02
outer loop
vertex 2.837325e-01 1.500000e+00 8.790482e-01
vertex 2.130218e-01 1.484776e+00 8.497589e-01
vertex 1.234633e-01 1.484776e+00 1.300000e+00
endloop
endfacet
facet normal 3.889974e-18 9.807853e-01 -1.950903e-01
outer loop
vertex 1.300000e+00 1.500000e+00 2.000000e-01
vertex 1.870000e+01 1.500000e+00 2.000000e-01
vertex 1.870000e+01 1.484776e+00 1.234633e-01
endloop
endfacet
facet normal 1.107771e-17 8.314696e-01 -5.555702e-01
outer loop
vertex 1.300000e+00 1.484776e+00 1.234633e-01
vertex 1.870000e+01 1.484776e+00 1.234633e-01
vertex 1.870000e+01 1.441421e+00 5.857864e-02
endloop
endfacet
facet normal 1.657896e-17 5.555702e-01 -8.314696e-01
outer loop
vertex 1.300000e+00 1.441421e+00 5.857864e-02
vertex 1.870000e+01 1.441421e+00 5.857864e-02
vertex 1.870000e+01 1.376537e+00 1.522409e-02
endloop
endfacet
facet normal 1.955622e-17 1.950903e-01 -9.807853e-01
outer loop
vertex 1.300000e+00 1.376537e+00 1.522409e-02
vertex 1.870000e+01 1.376537e+00 1.522409e-02
vertex 1.870000e+01 1.300000e+00 0.000000e+00
endloop
endfacet
facet normal 0.000000e+00 1.950903e-01 -9.807853e-01
outer loop
vertex 1.870000e+01 1.300000e+00 0.000000e+00
vertex 1.300000e+00 1.300000e+00 0.000000e+00
vertex 1.300000e+00 1.376537e+00 1.522409e-02
endloop
endfacet
facet normal 1.657896e-17 5.555702e-01 -8.314696e-01
outer loop
vertex 1.870000e+01 1.376537e+00 1.522409e-02
vertex 1.300000e+00 1.376537e+00 1.522409e-02
vertex 1.300000e+00 1.441421e+00 5.857864e-02
endloop
endfacet
facet normal 1.107771e-17 8.314696e-01 -5.555702e-01
outer loop
vertex 1.870000e+01 1.441421e+00 5.857864e-02
vertex 1.300000e+00 1.441421e+00 5.857864e-02
vertex 1.300000e+00 1.484776e+00 1.234633e-01
endloop
endfacet
facet normal 3.889974e-18 9.807853e-01 -1.950903e-01
outer loop
vertex 1.870000e+01 1.484776e+00 1.234633e-01
vertex 1.300000e+00 1.484776e+00 1.234633e-01
vertex 1.300000e+00 1.500000e+00 2.000000e-01
endloop
endfacet
endsolid SHAPR3D_SOLID
